<?xml version="1.0" encoding="UTF-8"?>
<svg id="Layer_1" data-name="Layer 1" xmlns="http://www.w3.org/2000/svg" viewBox="0 0 457.37 468.64">
  <defs>
    <style>
      .cls-1 {
        stroke-width: 0px;
      }
    </style>
  </defs>
  <g>
    <g>
      <path class="cls-1" d="m244.77,243.32c-.01,1.84-.08,1.85-1.81,1.93-1.35.07-2.72.09-4.08.05-2.27-.06-4.54-.14-6.82-.21-4.39-.15-8.94-.31-13.41-.31h-.12c-4.45,0-8.96.1-13.33.2-4.48.1-9.14.21-13.66.2-3.55,0-7.17-.12-10.66-.23-4.74-.15-9.65-.31-14.47-.19-8.02.21-15.44-2.39-22.7-7.93-6.39-4.88-9.35-11.91-8.79-20.9.02-.34.04-.68.05-1.02.04-.91.07-1.77.24-2.6.11-.54.2-1.08.3-1.62.5-2.78.97-5.42,2.7-7.59,1.16-1.46,2.37-2.86,3.66-4.34.59-.67,1.18-1.36,1.79-2.06l.41-.48-.39-.5c-.05-.07-.12-.17-.2-.29-.32-.47-.79-1.19-1.46-1.76-1.66-1.4-2.35-3.23-3.03-5.31-.99-3.04-.94-6.09-.89-9.31,0-.53.02-1.06.02-1.6.04-5.62,3.33-9.66,6.41-13,.78-.85,1.82-1.48,2.92-2.15.97-.6,1.98-1.21,2.84-2.01,1.77-1.65,3.79-2.83,6.16-3.61,4.04-1.33,8.37-2.63,12.89-2.63h.06c1.01,0,2.05.09,3.06.16,1.26.1,2.55.2,3.85.16l2.79-.1c6.41-.23,13.03-.46,19.56.15,3.77.35,7.62.24,11.34.12.95-.03,1.91-.06,2.86-.08,5.6-.13,11.28-.37,16.78-.61l.59-.02c.57-.02,1.11-.14,1.64-.25.59-.13,1.15-.24,1.67-.22,2.53.13,5.06.35,7.75.58.9.08,1.82.16,2.75.23.08.32.17.64.26.96.28,1.01.55,1.96.55,2.87.01,3.71-.06,7.49-.13,11.15-.04,2.3-.09,4.61-.11,6.91-.04,4.03-.01,8.09.02,11.91.01,1.13.05,2.25.09,3.38.04,1.07.08,2.13.09,3.2l.04,3.23c.05,4.34.11,8.82.07,13.22-.02,3.07-.1,6.19-.17,9.21-.08,3.2-.15,6.5-.17,9.76-.01,2.22.05,4.47.11,6.65.06,2.19.12,4.45.1,6.67h0Zm-17.55-35.64l-.04-.94-.67-.07c-.38-.04-.75-.08-1.12-.13-.81-.1-1.58-.2-2.38-.2-5.58-.01-11.15,0-16.73.01l-12.83.03c-7.57.02-15.14.03-22.71.04h-.38c-1.31,0-2.68,0-3.95-.2-3.82-.61-6.25.8-7.62,2.09-2.14,2.01-3.21,5.24-2.87,8.63.29,2.9,1.92,5.78,4.24,7.52,2.06,1.54,4.46,2.1,6.94,1.64.83-.16,1.76-.02,2.74.13.7.11,1.43.21,2.17.22,3.08.02,6.2-.03,9.22-.08l2.8-.04c2.81-.04,5.63-.08,8.45-.12l5.8-.09c.18,0,.34,0,.49.04,3.1.55,6.24.45,9.26.35,2.31-.08,4.69-.15,7.01.06.59.05,1.18.08,1.77.08,1.89,0,3.8-.25,5.8-.5,1.18-.15,2.41-.31,3.66-.42l.62-.05.08-.61c.76-5.74.51-11.39.24-17.37h0Zm.04-28.76c-.08-1.36-.16-2.76-.16-4.14v-.73s-.73-.04-.73-.04c-1.56-.08-3.09-.16-4.6-.25-3.57-.2-6.94-.39-10.37-.46-1.66-.03-3.33.07-4.95.17-1.4.09-2.84.17-4.27.17-1.7,0-3.43-.11-5.11-.21-1.37-.08-2.78-.17-4.18-.2-1.07-.02-2.14.04-3.17.11-.74.05-1.51.1-2.26.11h-.04l-1.44-.19c-.18-.03-.35-.06-.53-.09h-.25s0,.04,0,.04c-.53.06-1.06.15-1.57.25-1.21.22-2.35.42-3.3.16-1.51-.42-2.9-.29-4.24-.18-.64.06-1.23.1-1.85.11-2.45,0-4.9.07-7.29.24-3.58.26-5.66,2.08-6.53,5.74l-.11.46c-.33,1.34-.67,2.72-.37,4.41.33,1.86,1.07,4.05,3.92,4.53,2.25.38,4.23.54,6.12.55,3.84-.01,7.75-.07,11.53-.12,4.43-.06,9.01-.12,13.51-.12h.07c5.3,0,10.68.08,15.89.16,2.72.04,5.44.08,8.16.12.85,0,1.69.01,2.55.01.72,0,1.44,0,2.18,0h2.93s.12-.63.12-.63c.7-3.53.52-6.81.34-9.98Z"/>
      <path class="cls-1" d="m226.36,312.09c-.01-2.22.05-4.48.1-6.67.06-2.18.12-4.43.11-6.65-.02-3.26-.1-6.56-.17-9.76-.07-3.02-.14-6.14-.17-9.21-.04-4.4.02-8.89.07-13.22l.04-3.23c.01-1.07.05-2.13.09-3.2.04-1.13.08-2.25.09-3.38.04-3.81.06-7.88.02-11.91-.02-2.3-.07-4.61-.11-6.91-.07-3.65-.14-7.43-.13-11.15,0-.91.27-1.87.55-2.87.09-.32.18-.64.26-.96.94-.08,1.86-.16,2.75-.23,2.68-.23,5.22-.45,7.75-.58.52-.03,1.08.09,1.67.22.53.11,1.07.23,1.64.25l.59.02c5.5.24,11.18.49,16.78.61.95.02,1.9.05,2.86.08,3.73.11,7.58.23,11.34-.12,6.52-.61,13.15-.38,19.56-.15l2.79.1c1.3.04,2.59-.06,3.84-.16,1.01-.08,2.05-.16,3.06-.16h.06c4.52,0,8.84,1.3,12.89,2.63,2.37.78,4.39,1.96,6.16,3.61.86.8,1.87,1.42,2.84,2.01,1.1.67,2.14,1.31,2.92,2.15,3.08,3.34,6.37,7.38,6.41,13,0,.53.01,1.07.02,1.6.05,3.23.1,6.27-.89,9.31-.68,2.07-1.37,3.91-3.03,5.31-.67.57-1.15,1.28-1.46,1.76-.08.12-.15.23-.2.29l-.39.5.41.48c.6.71,1.2,1.39,1.79,2.06,1.29,1.48,2.51,2.88,3.67,4.34,1.73,2.17,2.2,4.81,2.69,7.59.1.54.19,1.08.3,1.62.16.83.2,1.69.24,2.6.01.34.03.68.05,1.02.56,8.99-2.4,16.02-8.79,20.9-7.26,5.54-14.68,8.14-22.7,7.93-4.83-.12-9.73.04-14.47.19-3.5.11-7.11.23-10.66.23-4.52,0-9.18-.1-13.66-.2-4.37-.1-8.88-.2-13.33-.2h-.12c-4.48,0-9.02.16-13.41.31-2.27.08-4.54.16-6.82.21-1.35.03-2.72.02-4.08-.05-1.73-.09-1.79-.09-1.81-1.93h0Zm17.55-35.64c-.27,5.98-.52,11.63.24,17.37l.08.61.62.05c1.25.11,2.48.27,3.66.42,2,.26,3.91.5,5.8.5.59,0,1.18-.02,1.77-.08,2.32-.22,4.71-.14,7.01-.06,3.03.1,6.16.2,9.27-.35.15-.03.31-.04.49-.04l5.8.09c2.82.04,5.63.09,8.45.12l2.8.04c3.02.05,6.15.1,9.22.08.73,0,1.46-.11,2.16-.22.98-.15,1.91-.28,2.74-.13,2.48.47,4.89-.1,6.94-1.64,2.32-1.73,3.94-4.61,4.23-7.52.34-3.39-.73-6.61-2.87-8.63-1.37-1.29-3.8-2.7-7.62-2.09-1.27.2-2.64.2-3.95.2h-.38c-7.57,0-15.14-.02-22.71-.04l-12.83-.03c-5.58-.01-11.15-.03-16.73-.01-.8,0-1.57.1-2.38.2-.36.05-.74.09-1.12.13l-.67.07-.04.94h0Zm.3-18.78l.12.62h2.93c.73,0,1.46,0,2.18,0,.85,0,1.7,0,2.55-.01,2.72-.03,5.44-.07,8.16-.12,5.21-.08,10.6-.16,15.89-.16h.07c4.5,0,9.08.06,13.51.12,3.78.05,7.69.1,11.53.12,1.89,0,3.87-.17,6.12-.55,2.85-.48,3.59-2.67,3.92-4.53.3-1.68-.04-3.07-.37-4.41l-.11-.46c-.87-3.66-2.95-5.48-6.53-5.74-2.39-.17-4.84-.25-7.29-.24-.61-.01-1.21-.05-1.85-.11-1.34-.12-2.72-.24-4.24.18-.94.26-2.09.06-3.3-.16-.51-.09-1.04-.19-1.57-.25v-.05s-.25.01-.25.01c-.18.02-.35.06-.53.09l-1.44.19h-.04c-.75-.01-1.52-.06-2.26-.11-1.03-.07-2.1-.13-3.17-.11-1.4.03-2.81.12-4.18.2-1.68.1-3.41.2-5.11.21-1.43,0-2.87-.09-4.27-.17-1.62-.1-3.3-.2-4.95-.17-3.43.07-6.8.26-10.37.46-1.51.08-3.04.17-4.6.25l-.73.04v.73c0,1.38-.08,2.78-.16,4.14-.18,3.17-.36,6.45.34,9.98Z"/>
    </g>
    <path class="cls-1" d="m307.47,186.01c0,10.94-8.87,19.81-19.81,19.81s-19.81-8.87-19.81-19.81c0-10.94,19.81-32.64,19.81-32.64,0,0,19.81,21.7,19.81,32.64Z"/>
    <path class="cls-1" d="m199.32,294.15c0,10.94-8.87,19.81-19.81,19.81s-19.81-8.87-19.81-19.81,19.81-32.64,19.81-32.64c0,0,19.81,21.7,19.81,32.64Z"/>
  </g>
  <g>
    <path class="cls-1" d="m61.9,197.5c-1.34-.55-2.7-1.16-4-1.75-1.3-.59-2.65-1.19-4-1.74-1.97-.81-3.99-1.6-5.94-2.36-1.84-.72-3.75-1.46-5.61-2.22-2.67-1.09-5.37-2.26-7.98-3.38l-1.94-.84c-.64-.28-1.28-.57-1.91-.86-.67-.31-1.34-.62-2.02-.91-2.3-.99-4.75-2.03-7.2-3.02-1.4-.57-2.8-1.12-4.21-1.68-2.23-.88-4.53-1.79-6.77-2.74-.55-.23-1.06-.63-1.6-1.06-.17-.13-.34-.27-.52-.4.19-.59.37-1.16.55-1.73.54-1.68,1.05-3.27,1.61-4.83.11-.32.33-.63.55-.95.2-.29.41-.59.56-.93l.17-.35c1.53-3.26,3.12-6.64,4.61-9.99.25-.57.51-1.14.77-1.71,1.01-2.22,2.05-4.53,2.79-6.89,1.28-4.1,3.09-8.04,4.85-11.86l.76-1.66c.35-.77.62-1.58.87-2.37.21-.63.42-1.28.67-1.89l.02-.04c1.14-2.73,3.02-5.02,4.84-7.13,1.07-1.24,2.3-2.16,3.74-2.81.7-.32,1.33-.77,1.93-1.21.69-.49,1.33-.96,2.04-1.22,2.8-1.02,6.07-1.99,9.48-.59.32.13.65.26.97.39,1.96.78,3.82,1.52,5.41,2.89,1.08.93,2.01,1.82,2.45,3.17.17.55.49,1.02.69,1.33.05.08.1.15.13.2l.2.36.39-.13c.58-.19,1.14-.37,1.7-.56,1.22-.41,2.37-.79,3.55-1.12,1.75-.49,3.46-.11,5.27.29.35.08.7.16,1.05.23.54.11,1.07.31,1.63.51.21.08.42.16.63.23,5.57,1.93,9.08,5.5,10.42,10.59,1.52,5.79,1.21,10.93-.94,15.73-1.29,2.89-2.44,5.89-3.54,8.8-.82,2.14-1.66,4.36-2.55,6.51-1.14,2.74-2.38,5.53-3.57,8.21-1.16,2.62-2.37,5.32-3.49,8.01l-.03.07c-1.13,2.71-2.18,5.49-3.2,8.19-.53,1.39-1.05,2.79-1.59,4.18-.32.83-.68,1.65-1.06,2.45-.49,1.02-.51,1.06-1.63.6h0Zm-28.4-24.54l.41.08.74-1.77c.19-.44.37-.88.55-1.32.22-.52.43-1.03.64-1.54.67-1.65,1.33-3.31,1.99-4.97,1.27-3.17,2.58-6.45,3.91-9.65l.02-.04c1.14-2.72,2.33-5.48,3.49-8.14.99-2.27,2-4.62,2.98-6.94.47-1.14.87-2.38,1.21-3.84.43-1.84-.71-2.84-1.75-3.51-.94-.61-1.86-.75-2.76-.89l-.3-.05c-2.43-.4-4.06.4-5.12,2.5-.71,1.4-1.37,2.86-1.99,4.35-.16.37-.34.72-.53,1.09-.41.78-.83,1.59-.96,2.61-.08.64-.49,1.28-.93,1.95-.18.29-.38.58-.54.89h-.03s-.06.14-.06.14c-.03.11-.06.23-.08.34l-.25.92s0,.02-.01.03c-.2.45-.42.9-.64,1.34-.3.61-.61,1.24-.87,1.89-.33.85-.64,1.73-.94,2.58-.36,1.04-.74,2.12-1.17,3.14-.36.86-.78,1.71-1.18,2.54-.47.95-.96,1.94-1.35,2.95-.82,2.09-1.56,4.18-2.34,6.39-.33.93-.67,1.88-1.01,2.84l-.16.45.44.19c.83.35,1.66.75,2.46,1.14,1.87.91,3.81,1.85,6.12,2.32Zm21.84,9.16l.39.11.19-.36c.38-.73.79-1.43,1.18-2.11.66-1.14,1.29-2.24,1.77-3.38.15-.36.28-.72.4-1.09.45-1.46,1.1-2.88,1.73-4.26.82-1.81,1.68-3.67,2.13-5.69.02-.1.05-.2.1-.31l1.52-3.49c.74-1.69,1.47-3.38,2.21-5.08l.73-1.68c.79-1.81,1.61-3.69,2.38-5.56.18-.44.3-.91.42-1.36.16-.63.31-1.23.61-1.69.91-1.38,1.17-2.98.76-4.61-.46-1.84-1.79-3.55-3.48-4.46-1.96-1.06-4.18-1.23-5.94-.45-1.12.5-2.59,1.61-3.19,4.08-.2.82-.54,1.65-.88,2.44l-.1.23c-1.91,4.58-3.83,9.15-5.76,13.72l-3.26,7.75c-1.42,3.37-2.83,6.74-4.23,10.11-.2.48-.34.97-.48,1.49-.06.23-.13.47-.2.71l-.13.42.56.26c3.55,1.67,6.9,3.25,10.56,4.24Z"/>
    <path class="cls-1" d="m142.91,68.67c.76-.68,1.34-.96,1.83-.9.48.06.97.48,1.48,1.27,1.21,1.85,2.6,3.63,3.93,5.34.7.91,1.4,1.82,2.12,2.72-2.58,2.28-5.13,4.6-7.83,6.79-2.73,2.22-5.49,4.4-8.26,6.59l-2.54,2.01c-1.99,1.58-4.35,3.45-6.71,5.38-.84.69-1.66,1.43-2.44,2.14-.65.59-1.32,1.2-2,1.77-.56.47-1.16.92-1.74,1.35-.55.41-1.12.83-1.66,1.28-2.82,2.33-5.66,4.72-8.41,7.03l-1.56,1.31c-.75.63-1.49,1.26-2.23,1.88-1.27,1.08-2.54,2.15-3.83,3.21-.28.23-.49.34-.61.32-.14-.02-.32-.18-.51-.46-1.13-1.61-2.38-3.17-3.59-4.68-.35-.43-.7-.87-1.04-1.3-.81-1.02-1.61-2.05-2.41-3.09-1.94-2.5-3.94-5.08-6.07-7.48-2.55-2.87-5.01-5.91-7.38-8.85-1.13-1.4-2.27-2.81-3.42-4.2-1.6-1.93-3.18-3.94-4.71-5.87-1.17-1.48-2.38-3.01-3.59-4.51-1.15-1.42-2.39-2.8-3.59-4.13l-.26-.29c-.52-.58-.59-1.09-.27-1.94.31-.83.87-1.41,1.52-1.93.25-.2.51-.4.78-.59.27-.2.55-.4.81-.61,2.91-2.35,5.9-4.7,8.8-6.96,1.61-1.26,3.21-2.51,4.81-3.77.63-.49,1.26-.98,1.89-1.46,1.84-1.41,3.6-2.9,5.4-4.36,1.41-1.16,2.68-2.65,4.14-3.84,1.53-1.24,3.11-2.44,4.68-3.63,1.67-1.26,3.39-2.57,5.04-3.92,3.1-2.55,6.26-5.11,9.49-7.73l.19-.15c.48-.39.92-.75,1.41-1.02.23-.13.83-.37,1.28.19,2.16,2.65,4.36,5.41,6.75,8.45.05.07.09.27.12.46.01.06.02.12.04.19-.8.7-1.6,1.4-2.41,2.11-1.98,1.74-4.03,3.53-6.08,5.26-1.42,1.2-2.96,2.46-4.94,4.07-.11.09-.23.18-.35.28-.46.37-.88.78-1.3,1.17-.32.31-.66.63-1.01.92-.43.36-.9.6-1.4.85-.42.21-.85.42-1.27.72-.52.37-1.01.82-1.48,1.25-.39.35-.79.72-1.18,1.02l-.62.48c-1.1.85-2.23,1.72-3.33,2.6-3.19,2.54-6.02,4.84-8.66,7.03-1.49,1.23-2.94,2.48-4.48,3.81-.69.6-1.4,1.2-2.12,1.83l-.3.26.18.35c1.25,2.49,3.1,4.68,4.89,6.79l.83.99.39-.33c.22-.19.45-.38.67-.57l-.05.08.79-.56.5-.59c.32-.27.64-.54.95-.81,2.17-1.86,4.21-3.62,6.36-5.34,1.92-1.54,3.91-3.06,5.84-4.53,1.47-1.12,2.99-2.27,4.47-3.44,1.29-1.01,2.56-2.09,3.79-3.13.65-.55,1.31-1.11,1.97-1.66.77-.64,1.36-1.05,1.77-1.01.4.04.89.55,1.55,1.36l.33.4c.75.94,1.54,1.9,2.4,2.78.98.98,1.44,2.25,1.94,3.59.21.56.42,1.14.68,1.73-.5.48-.99.96-1.49,1.44-1.3,1.27-2.64,2.58-4.04,3.77-1.29,1.09-2.67,2.13-4.01,3.14-.93.7-1.9,1.42-2.82,2.16-.59.47-1.13.99-1.66,1.49-.44.42-.9.86-1.37,1.25-.43.36-.88.64-1.37.95-.61.38-1.23.77-1.79,1.3-1.18,1.12-2.49,2.11-3.77,3.06-.74.55-1.51,1.13-2.25,1.73-.37.3-.63.69-.9,1.1-.12.18-.25.37-.39.57l-.23.32,6.7,8.27.38-.24c.21-.13.41-.25.59-.36.38-.23.74-.45,1.07-.7.8-.6,1.64-1.2,2.46-1.77,1.98-1.4,4.03-2.84,5.75-4.58.93-.94,2-1.76,3.04-2.56.75-.58,1.53-1.18,2.26-1.82.16-.14.31-.28.47-.42l.31-.25.32-.28.22-.27c.3-.28.59-.56.88-.84.95-.91,1.93-1.85,2.98-2.72,2.43-2,5.01-3.92,7.51-5.78,2.31-1.72,4.7-3.5,6.98-5.34,1.4-1.09,2.74-2.3,4.04-3.47.34-.3.68-.61,1.01-.91h0Z"/>
    <path class="cls-1" d="m189.96,37.38c-.66,1.61-.77,2.96-.37,4.38.97,3.39,1.9,6.85,2.79,10.2.65,2.41,1.29,4.82,1.95,7.22.24.88.56,1.84.87,2.76l.34,1.03c.33,1.01.05,1.72-.84,2.11-1.76.78-3.69,1.2-5.56,1.61-.92.2-1.86.41-2.79.65-.11.03-.21.06-.32.09-.39.11-.79.22-.87.21-.1-.09-.26-.65-.36-1.03-.62-2.23-1.19-4.49-1.75-6.68-.39-1.55-.77-3.09-1.16-4.64-.69-2.79-1.4-5.66-2.15-8.49-.81-3.05-2.49-5.32-5.16-6.93-1.48-.89-2.9-1.98-4.27-3.02-.76-.58-1.54-1.17-2.33-1.74-1.26-.9-2.58-1.78-3.84-2.63l-.82-.55c-2.45-1.64-4.9-3.28-7.36-4.92-3.64-2.43-7.28-4.87-10.91-7.31-.15-.1-.3-.2-.46-.29-.91-.56-1.47-.96-1.36-1.88.11-1.02.8-1.24,1.9-1.51.17-.04.35-.09.51-.13,1.64-.46,3.31-.9,4.93-1.32,1.54-.4,3.12-.81,4.68-1.25.91-.25,1.61-.12,2.48.49,2.41,1.68,4.9,3.35,7.3,4.96,1.56,1.05,3.12,2.1,4.67,3.16,1.3.89,2.61,1.81,3.87,2.7,1.05.74,2.09,1.48,3.14,2.21.61.42,1.25.82,1.99,1.27.38.23.79.49,1.24.77l.47.3.82-1.64c.36-.71.67-1.34.97-1.96l1.18-2.45c1.91-3.95,3.82-7.91,5.71-11.87l.16-.34c.93-1.94,1.89-3.95,2.75-5.97.54-1.26,1.17-1.84,2.27-2.11,2.19-.53,4.41-1.13,6.55-1.71,1.16-.31,2.32-.63,3.48-.93,1.07-.28,1.75-.41,2.32.35.52.7.26,1.34-.2,2.23-.51,1-1.03,2-1.55,2.99-.95,1.83-1.94,3.72-2.85,5.61-.78,1.62-1.51,3.3-2.21,4.92-.37.85-.73,1.7-1.11,2.54-.15.34-.32.66-.49,1-.12.22-.23.45-.34.67l-1.49,3.05c-1.4,2.88-2.86,5.86-4.26,8.8-.71,1.49-1.43,3.12-2.19,4.99Z"/>
    <path class="cls-1" d="m255.02,1.7c4.17-.21,8.48-.08,12.2.06,2.05.08,4.13.29,6.24.64,2.92.48,5.91,1.22,9.04,2.23,4.29,1.39,7.97,3.01,11.26,4.95,5.84,3.45,9.74,7.71,11.95,13.02.2.48.42.96.64,1.43.48,1.03.93,2,1.16,3.01.48,2.13.74,4.32.79,6.51.04,1.83-.15,3.72-.35,5.54l-.13,1.29c-.17,1.73-.35,3.52-.76,5.2-.22.92-.82,1.83-1.39,2.7l-.5.77c-.98,1.5-2,3.06-3.16,4.44-3.53,4.18-7.75,6.93-12.9,8.4-4.65,1.32-9.27,1.61-13.18,1.71-2.38.06-4.78-.07-7.33-.21-1.16-.06-2.35-.13-3.58-.18-.99-.24-2.01-.49-3.05-.75-2.59-.63-5.27-1.28-7.97-1.97-1.24-.32-2.5-.67-3.72-1.01-1.2-.33-2.43-.68-3.66-.99-2.05-.52-3.86-1.65-5.61-2.74-.28-.18-.57-.35-.85-.53-2.39-1.46-4.39-2.89-6.09-4.36-1.71-1.47-3.04-2.97-3.96-4.47-1.16-1.89-2.35-3.84-2.97-5.94-.32-1.1-.55-2.26-.77-3.39-.22-1.12-.45-2.28-.77-3.41-.45-1.56-.08-3.45.27-5.27.1-.53.2-1.04.28-1.54.64-4.08,1.94-7.87,3.87-11.25,1.27-2.22,3.16-4.18,4.85-5.81l.18-.18c1.79-1.73,3.64-3.52,6.05-4.44.45-.17.92-.31,1.39-.45.86-.26,1.75-.53,2.54-.98,2.87-1.66,6.16-1.82,9.34-1.98l.66-.03h0Zm18.5,13c-3.08-.78-8.39-1.26-11.57-1.55h-.08c-4.93-.46-9.19.16-13.03,1.86-1.94.86-3.71,2.14-5.43,3.89-3.2,3.27-4.78,7.26-4.7,11.85.02,1.33.17,2.77.46,4.41.41,2.34,1.57,4.38,2.69,6.35l.26.46c1.48,2.61,3.7,4.53,7,6.03,3.83,1.75,10.08,3.23,14.26,3.98h.03s.03,0,.03,0c1.25.08,3.8.29,6.04.48l1.78.15c1.96.16,4.29.31,6.71.17,4.29-.25,8-2.04,11.35-5.46,3.27-3.35,5.11-7.52,5.44-12.4.23-3.24-.58-6.43-2.33-9.22-1.74-2.77-4.35-4.84-6.88-6.72-2.79-2.07-6.79-3.03-10.33-3.87-.6-.14-1.18-.28-1.73-.42h0Z"/>
    <path class="cls-1" d="m354.25,65.66c-.07-.82-.15-1.63-.25-2.45-.44-3.61.18-7.26.13-10.87-.01-.64-.02-1.3-.02-1.99,0-.32.01-.6-.08-.9-2.26,1.22-4.33,4.17-5.88,6.19-.41.54-.83,1.07-1.25,1.6-5.57,6.95-11.19,14.04-16.03,20.15-1.07,1.35-2.13,2.74-3.15,4.09-.54.71-1.08,1.42-1.62,2.13-.79,1.03-.81,1.03-1.82.28-2.45-1.81-5.06-3.75-7.62-5.74-.28-.22-.43-.41-.44-.56-.02-.2.15-.44.29-.6,3.44-3.95,6.71-7.84,9.74-11.55.87-1.07,1.66-2.22,2.42-3.33.45-.65.91-1.33,1.38-1.98.52-.72,1.09-1.42,1.65-2.1l2.36-2.92c2.1-2.61,4.21-5.22,6.33-7.82,2.24-2.75,4.49-5.49,6.75-8.24,1.57-1.91,3.24-3.6,4.45-5.76,1.57-2.79,3.14-1.21,5.05.15,3.11,2.22,6.32,4.51,9.01,7.31.89.93,1.28,1.98,1.27,3.41-.01,1.49.07,2.99.16,4.44.07,1.2.14,2.43.15,3.65.02,1.34-.03,2.71-.08,4.03-.04,1.12-.08,2.28-.08,3.42,0,.94-.02,1.87-.04,2.81-.05,2.69-.1,5.48.23,8.19.27,2.23.31,4.51.34,6.71.02,1.24.04,2.52.1,3.78.12,2.54.09,5.14.06,7.66,0,.69-.02,1.37-.02,2.06,0,1.02-.05,2.05-.09,3.06-.03.84-.06,1.68-.08,2.52,0,.35.06.68.13,1.06.04.19.08.4.12.63.04.33.09.65.23.94,1.01-.77,1.81-2.13,2.62-3.14,1.38-1.72,2.7-3.37,4.03-5.02,1.12-1.39,2.25-2.78,3.37-4.17,1.93-2.38,3.85-4.76,5.77-7.15.66-.82,1.3-1.68,1.92-2.51.67-.89,1.36-1.81,2.06-2.69,2.03-2.51,4.1-4.97,6.22-7.47.35-.42.8-.81,1.28-1.13.27-.17.58-.26.66-.25l.29.13c1.06.46,2.15.94,3.03,1.62.84.65,1.63,1.42,2.4,2.17.44.43.9.88,1.37,1.31.61.55.92,1.05.93,1.5.01.42-.22.86-.71,1.36-3.65,3.7-6.75,7.92-9.75,12l-.74,1c-1.09,1.47-2.31,2.9-3.49,4.27-.56.65-1.12,1.3-1.67,1.96-.53.63-1.06,1.27-1.59,1.9-1.24,1.48-2.52,3.01-3.76,4.54-4.73,5.87-8.56,10.66-12.07,15.09-.44.56-.8,1.16-1.16,1.75-.3.49-.58.96-.9,1.4-.35.48-.66.74-.94.77-.3.03-.7-.17-1.24-.64-1.56-1.35-3.17-2.68-4.73-3.97-.69-.57-1.39-1.14-2.08-1.72l-1.08-.89c-1.16-.96-2.36-1.95-3.5-2.96-.16-.14-.31-.48-.31-.7,0-2.06.02-4.12.04-6.18.01-1.43.03-2.86.04-4.29,0-.55-.04-1.1-.08-1.63-.02-.28-.04-.56-.06-.84l-.02-.34c-.02-.44-.05-.86-.04-1.28v-.62c.04-2.22.07-4.52.14-6.78.06-2.05.13-4.09.2-6.14.04-1.03.07-2.06.11-3.09.01-.35.02-.7,0-1.05-.06-3.21-.1-6.37-.36-9.55h0Z"/>
    <path class="cls-1" d="m442.83,193.21c-2.72,1.58-5.53,3.21-8.63,4.02-.47.12-.91.36-1.26.54-1.99,1.06-4.24,1.51-7.08,1.41-.62-.02-1.24.02-1.84.05-.71.04-1.38.09-2.05.04l-.31-.02c-1.86-.14-3.79-.29-5.57-.76-3.25-.84-5.84-2.1-8.13-3.95-2.15-1.73-4.38-3.52-5.69-5.99-.28-.53-.57-1.06-.86-1.59-1.12-2.05-2.28-4.16-2.97-6.47-.55-1.81-1.34-3.56-2.1-5.25-.51-1.13-1.04-2.29-1.48-3.46-.56-1.46-1.05-2.98-1.52-4.45-.38-1.17-.76-2.37-1.19-3.55-.33-.93-.74-1.84-1.12-2.72-.29-.66-.59-1.35-.86-2.02-.64-1.63-1.26-3.3-1.87-4.91-.25-.67-.5-1.34-.75-2-.12-.32-.23-.65-.34-.97-.24-.7-.48-1.43-.83-2.11-1.58-3.08-2.9-6.34-4.18-9.5-.9-2.23-1.84-4.53-2.85-6.75-.1-.22-.2-.52-.13-.69.07-.17.35-.31.57-.39,1.35-.5,2.71-1.03,4.03-1.55.8-.31,1.6-.63,2.4-.93,1.38-.53,2.76-1.05,4.14-1.57,2.9-1.1,5.91-2.24,8.84-3.42,1.41-.57,2.8-1.22,4.15-1.84,1.28-.59,2.6-1.21,3.91-1.75,1.94-.79,3.96-1.51,5.91-2.21.76-.27,1.51-.54,2.27-.81.88-.32,1.76-.63,2.65-.94,1.75-.61,3.56-1.25,5.31-1.96,1.68-.68,3.36-1.42,4.98-2.14,1.43-.63,2.91-1.29,4.38-1.89.51-.21,1.1-.28,1.72-.35.18-.02.35-.04.54-.07.3.69.6,1.38.9,2.08.98,2.22,1.99,4.52,2.7,6.86.98,3.24,2.1,6.43,3.31,9.59.59,1.56,1.21,3.11,1.83,4.66.31.78.63,1.55.95,2.32.15.36.22.74.37,1.09.51,1.08.99,2.17,1.45,3.27,1.74,4.13,3.43,8.37,5.06,12.46,1.05,2.63,2.13,5.35,3.22,8.02.26.63.51,1.25.76,1.88,1.06,2.66,1.29,5.44,1.45,8.53.09,1.62-.14,3.03-.7,4.42-.34.84-.52,1.73-.69,2.6-.1.47-.19.97-.32,1.43-.52,1.96-1.73,3.51-3,5.15-.36.46-.72.92-1.06,1.39-.93,1.28-2.11,2.55-3.6,3.87-1.18,1.05-2.52,2.01-3.97,2.85l-.8.46h0Zm-16.3-6.41c4.83-.68,8.68-2.29,11.8-4.92,2.79-2.36,4.51-4.94,5.26-7.89.06-.22.11-.43.17-.65.32-1.16.64-2.37.48-3.63-.15-1.16-.63-2.3-1.09-3.4-.17-.4-.33-.79-.47-1.17-.97-2.6-1.95-5.2-2.94-7.79-.36-.94-.72-1.88-1.08-2.81-2.69-7.02-5.47-14.12-8.28-21.11l-.06-.14c-3.11-7.82-3.63-7.82-4.16-7.62-.07.01-.13.03-.2.04-.19.04-.4.08-.61.16l-2.3.86c-2.45.92-4.99,1.87-7.47,2.84-7.06,2.75-14.15,5.54-19.54,7.66-1.83.72-2.19,1.54-1.49,3.38,1.35,3.54,2.74,7.07,3.8,9.75l.32.82c.56,1.42,1.13,2.85,1.7,4.3l.17.54.31.67c.4.99.81,1.99,1.22,2.97.42,1.01.88,2.03,1.33,3.01.58,1.27,1.17,2.58,1.68,3.89,1.49,3.84,3.18,8.2,4.59,12.49.68,2.07,1.89,3.69,4.07,5.42,1,.8,2.13,1.08,3.22,1.35.54.14,1.05.26,1.54.45,2.81,1.07,5.64.87,8.03.53h0Z"/>
  </g>
  <g>
    <path class="cls-1" d="m17.42,325.82c1.23-.78,2.51-1.53,3.75-2.25,1.23-.72,2.5-1.47,3.73-2.25,1.8-1.14,3.62-2.33,5.37-3.48,1.65-1.09,3.37-2.21,5.07-3.28,2.44-1.55,4.95-3.07,7.38-4.54l1.81-1.1c.6-.36,1.2-.71,1.81-1.06.64-.37,1.28-.74,1.91-1.12,2.13-1.3,4.4-2.69,6.63-4.11,1.27-.81,2.54-1.63,3.8-2.46,2.01-1.31,4.09-2.65,6.16-3.94.51-.32,1.13-.5,1.79-.69.21-.06.42-.12.63-.19.37.5.73.98,1.08,1.45,1.06,1.41,2.06,2.75,3.01,4.11.2.28.32.63.46,1,.12.33.25.67.43,1l.19.34c1.77,3.14,3.6,6.39,5.47,9.54.32.54.63,1.08.95,1.62,1.23,2.11,2.5,4.29,4,6.27,2.6,3.42,4.76,7.18,6.86,10.82l.91,1.58c.42.74.93,1.42,1.42,2.08.39.53.8,1.08,1.15,1.64l.02.04c1.56,2.51,2.34,5.37,3,8.08.39,1.59.43,3.12.13,4.68-.15.75-.14,1.53-.13,2.28,0,.84.01,1.64-.19,2.37-.79,2.87-1.9,6.1-5.01,8.07-.29.19-.59.38-.88.57-1.78,1.15-3.45,2.23-5.49,2.73-1.39.34-2.65.59-4,.16-.55-.18-1.11-.19-1.49-.2-.1,0-.18,0-.23-.01l-.41-.04-.12.39c-.18.58-.36,1.15-.53,1.71-.38,1.23-.73,2.39-1.14,3.54-.61,1.71-1.91,2.89-3.29,4.13-.27.24-.53.48-.8.73-.4.38-.87.7-1.36,1.03-.18.13-.37.25-.55.38-4.8,3.42-9.74,4.21-14.67,2.35-5.6-2.12-9.61-5.34-12.27-9.88-1.6-2.73-3.39-5.4-5.12-7.98-1.27-1.91-2.59-3.88-3.82-5.85-1.57-2.51-3.12-5.14-4.62-7.67-1.46-2.46-2.96-5.01-4.5-7.48l-.04-.06c-1.55-2.49-3.21-4.96-4.82-7.35-.83-1.24-1.66-2.47-2.48-3.72-.49-.74-.95-1.51-1.38-2.29-.55-.99-.57-1.03.45-1.67h0Zm25.9-2.58c-3.42,1.92-6.65,3.74-9.58,6.15l-.31.26.18.36c.37.73.71,1.47,1.04,2.18.55,1.2,1.08,2.35,1.73,3.4.2.33.42.65.66.95.92,1.22,1.71,2.57,2.46,3.88.99,1.72,2.02,3.5,3.4,5.03.06.07.13.16.19.26l1.96,3.26c.95,1.58,1.9,3.16,2.86,4.74l.95,1.57c1.02,1.7,2.08,3.45,3.15,5.16.26.41.57.77.87,1.13.42.5.82.96,1.02,1.48.6,1.54,1.75,2.68,3.31,3.29,1.77.69,3.93.59,5.65-.25,2-.98,3.43-2.7,3.81-4.58.24-1.21.19-3.05-1.48-4.96-.55-.64-1.03-1.4-1.48-2.13l-.13-.21c-2.62-4.21-5.23-8.43-7.85-12.64l-4.43-7.14c-1.92-3.11-3.85-6.21-5.79-9.31-.28-.44-.6-.84-.94-1.26-.15-.19-.31-.38-.46-.58l-.27-.35-.54.3h0Zm10.55-6.34l-.3.28,1.01,1.63c.25.41.5.81.75,1.21.3.48.59.94.89,1.41.96,1.5,1.93,3,2.89,4.5,1.85,2.87,3.76,5.84,5.6,8.78l.02.04c1.56,2.5,3.11,5.07,4.61,7.56,1.28,2.12,2.6,4.31,3.93,6.45.66,1.05,1.44,2.09,2.43,3.21,1.25,1.42,2.73,1.07,3.88.61,1.04-.42,1.69-1.08,2.32-1.73l.21-.22c1.73-1.75,2.03-3.54.93-5.62-.73-1.39-1.54-2.78-2.39-4.14-.21-.34-.39-.69-.58-1.06-.4-.79-.81-1.6-1.56-2.3-.47-.44-.75-1.14-1.05-1.89-.13-.32-.26-.65-.41-.96l.03-.02-.09-.14c-.07-.09-.15-.18-.23-.26l-.61-.73s-.01-.02-.02-.02c-.25-.42-.49-.86-.72-1.29-.32-.6-.65-1.22-1.04-1.8-.5-.77-1.04-1.52-1.56-2.26-.64-.9-1.3-1.83-1.89-2.77-.49-.8-.94-1.62-1.38-2.44-.5-.94-1.03-1.9-1.62-2.81-1.23-1.88-2.5-3.69-3.85-5.61-.57-.81-1.15-1.63-1.73-2.47l-.27-.4-.41.25c-.77.48-1.58.92-2.36,1.35-1.83,1-3.71,2.03-5.43,3.65Z"/>
    <path class="cls-1" d="m145.76,437.73c.89.48,1.35.94,1.46,1.42.1.48-.12,1.07-.69,1.82-1.34,1.77-2.54,3.67-3.71,5.5-.62.97-1.24,1.93-1.85,2.91-3.01-1.66-6.06-3.29-9.02-5.09-3.01-1.83-5.99-3.7-8.98-5.56l-2.75-1.72c-2.16-1.34-4.71-2.93-7.33-4.51-.93-.56-1.9-1.08-2.84-1.58-.77-.41-1.57-.84-2.34-1.29-.63-.37-1.26-.78-1.86-1.19-.57-.38-1.16-.77-1.76-1.13-3.14-1.87-6.35-3.75-9.45-5.56l-1.76-1.03c-.84-.49-1.68-.98-2.53-1.47-1.44-.84-2.88-1.67-4.31-2.53-.31-.19-.48-.34-.51-.47-.03-.14.06-.36.26-.64,1.14-1.61,2.19-3.31,3.2-4.95.29-.47.58-.95.88-1.42.69-1.11,1.39-2.21,2.1-3.31,1.7-2.66,3.46-5.42,5.01-8.24,1.85-3.37,3.88-6.7,5.85-9.93.94-1.54,1.88-3.08,2.81-4.63,1.28-2.15,2.64-4.32,3.95-6.41,1-1.6,2.04-3.26,3.03-4.9.95-1.56,1.83-3.19,2.68-4.77l.19-.35c.37-.68.82-.92,1.73-.9.88.02,1.62.35,2.33.78.27.17.54.35.82.53.28.19.56.38.85.55,3.19,1.95,6.41,3.98,9.52,5.95,1.72,1.09,3.44,2.18,5.17,3.26.67.42,1.34.86,2.01,1.29,1.94,1.26,3.94,2.42,5.92,3.62,1.56.94,3.4,1.63,5.01,2.61,1.69,1.02,3.34,2.11,4.99,3.19,1.75,1.15,3.56,2.33,5.38,3.43,3.44,2.07,6.92,4.18,10.47,6.34l.21.13c.53.32,1.02.61,1.44.99.2.18.62.66.25,1.27-1.77,2.92-3.63,5.93-5.68,9.2-.05.07-.22.17-.39.27-.05.03-.11.06-.17.1-.93-.52-1.86-1.04-2.79-1.56-2.3-1.28-4.68-2.61-7-3.96-1.61-.94-3.31-1.96-5.49-3.29-.13-.08-.25-.15-.38-.23-.5-.31-1.03-.57-1.54-.83-.4-.2-.82-.41-1.21-.64-.49-.28-.87-.65-1.27-1.03-.34-.32-.68-.66-1.11-.96-.52-.36-1.11-.68-1.68-.98-.46-.25-.94-.5-1.36-.77l-.66-.42c-1.17-.75-2.37-1.52-3.57-2.26-3.47-2.15-6.58-4.04-9.53-5.79-1.66-.99-3.33-1.93-5.09-2.94-.8-.45-1.6-.91-2.43-1.39l-.34-.2-.27.29c-1.92,2.02-3.36,4.49-4.75,6.89l-.65,1.12.44.26c.25.15.51.29.76.44l-.1-.02.79.56.72.27c.36.21.73.41,1.09.62,2.48,1.42,4.82,2.75,7.17,4.2,2.1,1.29,4.2,2.66,6.23,3.98,1.55,1.01,3.15,2.05,4.74,3.05,1.39.87,2.83,1.71,4.22,2.52.74.43,1.48.86,2.22,1.3.86.51,1.45.93,1.55,1.32.1.39-.22,1.02-.76,1.92l-.27.44c-.63,1.02-1.28,2.08-1.81,3.19-.6,1.25-1.63,2.12-2.73,3.03-.46.39-.94.78-1.4,1.23-.62-.31-1.24-.61-1.86-.92-1.63-.8-3.32-1.62-4.91-2.54-1.46-.85-2.91-1.8-4.3-2.72-.97-.64-1.98-1.31-2.99-1.93-.64-.4-1.31-.74-1.96-1.06-.55-.28-1.11-.56-1.64-.87-.48-.28-.9-.62-1.35-.97-.56-.44-1.14-.9-1.83-1.24-1.45-.73-2.82-1.64-4.15-2.52-.77-.51-1.57-1.04-2.38-1.54-.41-.25-.86-.36-1.34-.48-.21-.05-.44-.11-.67-.18l-.38-.11-5.53,9.09.35.28c.2.15.37.3.54.44.34.28.67.54,1.02.77.84.55,1.68,1.14,2.49,1.72,1.98,1.4,4.03,2.84,6.25,3.87,1.2.56,2.34,1.29,3.44,2,.8.52,1.62,1.05,2.48,1.52.18.1.37.2.55.3l.34.21.37.21.33.12c.36.18.73.37,1.09.55,1.18.59,2.4,1.19,3.56,1.89,2.71,1.62,5.38,3.4,7.97,5.13,2.4,1.6,4.88,3.25,7.38,4.77,1.5.95,3.09,1.81,4.62,2.64.4.22.8.43,1.2.65h0Z"/>
    <path class="cls-1" d="m218.13,466.18c-.65-.12-1.32-.24-2-.33l-.29-.04-.71-.06-.38-.05c-.78-.07-1.56-.13-2.33-.19-.95-.07-1.92-.14-2.88-.25-6.45-.68-12.18-1.07-17.53-1.18-1.75-.04-3.55-.3-5.28-.55l-.55-.08c-.38-.06-.78-.28-1.19-.52-.11-.06-.22-.12-.33-.18-.75-.4-.97-.92-.78-1.86.29-1.49.43-3.01.57-4.49l.23-2.41c.34-3.58.69-7.29.96-10.94.12-1.69.21-3.4.29-5.06.09-1.85.18-3.75.33-5.62.12-1.47.35-2.96.58-4.4.12-.78.25-1.56.35-2.35.08-.56.12-1.13.16-1.68l1.39-16.6c.07-.88.15-1.76.24-2.7l.09-.96c.11-.02.21-.04.32-.05.45-.08.87-.15,1.24-.11,2.37.21,4.93.47,8.28.85,1.05.12,1.19.21,1.09,1.38-.22,2.49-.46,4.98-.71,7.47-.2,2.05-.4,4.11-.59,6.17-.16,1.73-.3,3.47-.45,5.2-.16,1.93-.32,3.86-.5,5.78-.06.59-.16,1.17-.28,1.79-.1.56-.21,1.14-.27,1.72l-.09.8c-.25,2.33-.51,4.74-.65,7.12-.13,2.2-.16,4.43-.18,6.59,0,.58-.02,1.17-.03,1.76,0,.33.15.61.23.76l.14.33,2.28.2c1.52.13,3,.26,4.48.4.53.05,1.08.14,1.6.21.59.09,1.2.18,1.82.24,1.06.09,2.12.17,3.18.25,1.38.1,2.8.2,4.2.35l1.6.17c2.55.26,5.19.54,7.81.75l4.14.34c1.72.14,3.47.25,5.16.36,2.67.17,5.44.35,8.13.65,1.98.22,3.91.54,5.95.89.77.13,1.55.26,2.34.39.21,1.72.05,3.46-.11,5.14l-.22,2.31c-.1,1.01-.19,2.02-.28,3.03-.13,1.5-.43,1.78-1.86,1.72-.73-.03-1.47-.12-2.2-.2-.57-.06-1.15-.13-1.73-.17-2.61-.19-5.22-.37-7.83-.55-3.02-.21-6.05-.42-9.07-.64-2.13-.16-3.99-.33-5.67-.54-.73-.09-1.48-.23-2.21-.35h0Z"/>
    <path class="cls-1" d="m277.26,456.49c-.59-2.87-1.19-5.83-1.82-8.75-.27-1.24-.61-2.48-.94-3.68-.29-1.06-.59-2.15-.83-3.23-.22-.98-.37-2.01-.5-3-.06-.46-.13-.93-.2-1.39l-.02-.17c-.02-.16-.05-.32-.08-.48-.21-.85-.43-1.7-.64-2.55-.45-1.77-.91-3.6-1.31-5.4-.3-1.32-.55-2.69-.79-4.01-.19-1.02-.38-2.03-.59-3.04-.24-1.18-.51-2.35-.78-3.53-.24-1.05-.48-2.1-.7-3.16-.24-1.16-.47-2.32-.69-3.48-.14-.73-.28-1.46-.43-2.2-.08-.42-.18-.84-.27-1.26-.15-.69-.31-1.4-.42-2.1-.06-.37-.04-.65.76-.85.87-.22,1.74-.48,2.58-.73,1.06-.32,2.16-.64,3.25-.88.05,0,.09-.02.14-.03,1.07-.22,2.26-.12,3.29,0,.17.02.54.35.8.79.27.46.41,1.08.52,1.62.89,4.13,1.78,8.26,2.66,12.39,1.4,6.52,2.8,13.03,4.21,19.54.52,2.4,1.09,4.84,1.64,7.19,1.15,5.31,2.37,10.61,3.33,15.96,0,.05.02.1-.01.14-.03.04-.08.05-.12.06-1.57.36-3.14.71-4.7,1.11-1.99.51-3.98,1.05-6.02,1.31-.03-.12-.06-.23-.09-.35-.5-1.93-.82-3.92-1.22-5.88Z"/>
    <path class="cls-1" d="m377.21,404.94c.84-.57,1.45-.77,1.93-.64.47.13.89.6,1.3,1.45.95,2,2.09,3.94,3.18,5.82.58,1,1.15,1.99,1.74,2.98-2.86,1.91-5.7,3.87-8.67,5.68-3.01,1.83-6.04,3.62-9.07,5.42l-2.79,1.66c-2.18,1.3-4.77,2.84-7.38,4.44-.93.57-1.83,1.19-2.71,1.79-.72.5-1.47,1.01-2.22,1.48-.62.39-1.27.75-1.91,1.11-.6.33-1.22.67-1.81,1.04-3.1,1.93-6.24,3.92-9.28,5.83l-1.72,1.09c-.82.52-1.65,1.04-2.47,1.57-1.4.9-2.81,1.79-4.23,2.67-.31.19-.53.27-.65.24-.13-.04-.29-.22-.45-.52-.9-1.75-1.93-3.46-2.93-5.12-.29-.48-.57-.95-.86-1.43-.67-1.12-1.32-2.25-1.97-3.38-1.58-2.74-3.22-5.56-5.01-8.23-2.14-3.19-4.17-6.53-6.13-9.76-.94-1.54-1.87-3.09-2.82-4.62-1.32-2.13-2.62-4.33-3.88-6.45-.96-1.63-1.96-3.3-2.96-4.95-.95-1.56-1.99-3.09-3-4.57l-.22-.32c-.44-.64-.44-1.16,0-1.95.42-.78,1.05-1.28,1.77-1.71.27-.17.56-.33.85-.48.3-.16.6-.32.88-.5,3.2-1.94,6.48-3.87,9.66-5.72,1.76-1.03,3.52-2.05,5.27-3.09.68-.41,1.38-.8,2.07-1.19,2.02-1.15,3.96-2.39,5.93-3.6,1.56-.96,3.01-2.27,4.62-3.25,1.68-1.03,3.4-2,5.12-2.97,1.82-1.03,3.71-2.09,5.52-3.21,3.42-2.11,6.89-4.22,10.45-6.39l.21-.13c.52-.32,1.01-.62,1.54-.82.25-.1.87-.25,1.24.36,1.78,2.92,3.6,5.95,5.56,9.27.04.07.05.28.06.47,0,.06,0,.13.01.19-.89.58-1.78,1.17-2.67,1.76-2.2,1.45-4.47,2.96-6.73,4.39-1.57.99-3.26,2.04-5.44,3.37-.13.08-.25.15-.38.23-.5.31-.98.65-1.44.99-.37.26-.74.54-1.12.78-.47.3-.97.47-1.5.65-.44.15-.9.3-1.36.55-.56.3-1.11.68-1.64,1.04-.43.3-.87.6-1.31.86l-.68.39c-1.2.69-2.44,1.4-3.65,2.13-3.5,2.09-6.61,3.99-9.52,5.8-1.64,1.02-3.25,2.07-4.95,3.17-.77.5-1.55,1.01-2.35,1.52l-.33.21.13.38c.91,2.64,2.45,5.05,3.94,7.38l.69,1.09.43-.27c.25-.16.49-.31.74-.47l-.06.08.86-.45.57-.51c.35-.23.7-.45,1.05-.68,2.4-1.55,4.66-3.02,7.02-4.44,2.11-1.27,4.29-2.51,6.39-3.7,1.61-.91,3.27-1.85,4.89-2.8,1.41-.83,2.82-1.72,4.17-2.59.72-.46,1.45-.92,2.18-1.38.85-.53,1.49-.86,1.88-.77.39.09.81.67,1.35,1.56l.27.44c.62,1.03,1.26,2.09,2.01,3.07.84,1.11,1.13,2.42,1.44,3.82.13.59.26,1.19.44,1.81-.56.41-1.11.82-1.67,1.23-1.46,1.08-2.96,2.2-4.51,3.19-1.42.91-2.93,1.76-4.4,2.57-1.02.57-2.07,1.16-3.09,1.76-.65.38-1.26.83-1.85,1.26-.5.36-1.01.73-1.53,1.06-.47.3-.96.52-1.49.75-.65.29-1.32.6-1.94,1.05-1.31.96-2.75,1.76-4.15,2.53-.81.45-1.65.91-2.46,1.41-.41.25-.72.6-1.04.97-.14.17-.29.34-.46.51l-.27.28,5.53,9.09.41-.19c.22-.1.44-.19.63-.28.41-.18.79-.34,1.16-.55.88-.49,1.79-.97,2.67-1.42,2.15-1.12,4.37-2.27,6.31-3.77,1.05-.81,2.22-1.48,3.36-2.13.83-.47,1.68-.96,2.49-1.5.17-.12.35-.23.52-.35l.34-.21.36-.23.25-.24c.33-.24.66-.48.98-.72,1.06-.78,2.16-1.58,3.32-2.29,2.68-1.66,5.5-3.22,8.21-4.72,2.52-1.4,5.13-2.84,7.63-4.36,1.53-.9,3.03-1.91,4.47-2.89.38-.25.75-.51,1.13-.76h0Z"/>
    <path class="cls-1" d="m404.55,313.7c-.25.35-.49.7-.74,1.06-.52.76-.92,1.58-1.3,2.37-.39.81-.76,1.57-1.25,2.27-.11.15-.22.29-.33.44-.16.2-.32.41-.46.63h0c-1.59,2.42-3.16,5.05-4.51,7.32-1.27,2.13-2.52,4.32-3.73,6.44-.89,1.55-1.77,3.1-2.67,4.64-.77,1.33-1.58,2.63-2.43,4.02-.4.65-.81,1.31-1.23,2l-.21.35.3.28c2.08,1.95,4.67,3.44,7.18,4.88l.78.45.25-.44c.24-.41.47-.81.7-1.22l.17-.27.21-.28.13-.35c.22-.39.44-.77.66-1.16,1.42-2.48,2.75-4.82,4.19-7.17,1.29-2.1,2.65-4.19,3.98-6.23,1.01-1.55,2.05-3.15,3.05-4.73.87-1.38,1.7-2.81,2.51-4.2.43-.75.87-1.5,1.31-2.24.51-.86.93-1.45,1.32-1.54.39-.1,1.03.22,1.93.77.49.3.99.58,1.48.85.7.39,1.41.78,2.07,1.23,1.11.75,2.56,1.76,3.87,2.93.7.62.81,1.23.36,1.97-.64,1.06-1.23,2.16-1.8,3.23-.52.97-1.07,1.98-1.64,2.94-1.09,1.84-2.27,3.67-3.4,5.44l-.98,1.53c-.78,1.23-1.57,2.46-2.36,3.68-1.2,1.86-2.4,3.72-3.58,5.6-.85,1.36-1.71,2.81-2.6,4.43-.78,1.41-.42,2.56,1.08,3.41.95.54,1.9,1.06,2.85,1.59,1.48.82,3.01,1.67,4.49,2.54,3.47,2.04,7.05,4.25,9.92,6.02.92.56,1.1,1.32.56,2.28-1.44,2.53-2.91,5.04-4.29,7.39-.15.26-.39.66-.45.71-.13,0-.59-.28-.87-.44-1.43-.86-2.86-1.75-4.25-2.61l-1.63-1.01c-1.13-.7-2.26-1.4-3.39-2.11-2.72-1.69-5.53-3.44-8.32-5.12-.76-.46-1.57-.83-2.36-1.2-.75-.35-1.53-.71-2.24-1.13-.86-.51-1.7-1.09-2.52-1.66-1.15-.79-2.35-1.62-3.62-2.27-1.88-.97-3.67-2.17-5.4-3.33-1.47-.99-2.99-2.01-4.58-2.9-2.05-1.15-4.09-2.42-6.06-3.65-1.01-.63-2.02-1.26-3.04-1.88-.38-.23-.79-.41-1.18-.58l-.19-.08c-.68-.3-.93-.75-.92-1.67.01-.92.35-1.68.8-2.42.2-.33.42-.65.65-.98.21-.31.43-.62.63-.94,1.44-2.32,2.94-4.66,4.39-6.92,1.26-1.95,2.55-3.97,3.8-5.97.37-.59.74-1.17,1.11-1.75,1.4-2.2,2.84-4.48,4.03-6.84l.47-.67.24-.77c1.66-3.28,3.69-6.39,5.66-9.41,1.17-1.79,2.38-3.64,3.5-5.51,1.79-2.99,3.64-6.02,5.42-8.94l.97-1.6c.31-.51.6-.99.95-1.41.29-.33.77-.65,1.44-.24,3.05,1.85,6.09,3.73,9.04,5.57.07.04.18.23.28.4.04.07.09.14.13.22-.51.9-1.02,1.82-1.53,2.73-1.31,2.35-2.67,4.78-4.08,7.14-.84,1.4-1.8,2.77-2.72,4.1h0Z"/>
  </g>
  <g>
    <g>
      <path class="cls-1" d="m9.4,260.19c2.89.28,5.94-.09,8.99.13.37.03.74.08,1.1.15.34.07.68.26.73.58.17,1.04.2,2.11-.31,3.06-.25.46-.84.69-1.4.61-1.08-.15-2.13.02-3.19.09-1.26.08-2.57-.03-3.8-.21-2.64-.38-5.27-.1-7.9-.13-.45,0-.9.04-1.34-.11-.91-.3-1.19-.65-1.15-1.61.05-1.17.21-2.32.6-3.44.08-.23.2-.45.25-.68.7-3.87,3.45-6.32,6.37-8.58,1.44-1.12,3.12-1.95,4.76-2.8,2.35-1.22,4.28-2.89,5.3-5.32.61-1.44.59-2.92-.16-4.42-.56-1.12-1.33-1.97-2.26-2.78-1.23-1.07-2.67-1.11-4.17-1.15-3.4-.1-5.8,2.54-6.69,5.56-.24.8-.68,1.19-1.45,1.21-.82.02-1.74.32-2.33-.63-.26-.42-.32-.84-.22-1.27.18-.78.27-1.63.65-2.32,1.16-2.04,2.36-4.07,4.74-5.05,1.6-.66,3.2-1.33,4.98-1.33,3.75.01,6.9,1.3,9.26,4.24,1.01,1.26,1.73,2.63,2.1,4.19.21.87.31,1.7.08,2.61-.29,1.15-.25,2.32-.76,3.48-.9,2.03-2.36,3.45-4.22,4.56-2.71,1.61-5.46,3.17-7.97,5.07-1.2.91-2.34,1.91-3.09,3.25-.34.61-.5,1.28-.6,1.96-.13.85-.01,1.04.84,1.08.7.04,1.4.17,2.25.01h0Z"/>
      <path class="cls-1" d="m14.45,265.92c-.93,0-1.95-.08-3.08-.24-1.71-.25-3.41-.2-5.2-.16-.85.02-1.7.04-2.55.03h-.26c-.4,0-.89,0-1.41-.16-1.39-.46-1.95-1.26-1.89-2.68.06-1.43.28-2.66.67-3.76.04-.1.07-.19.11-.29.03-.08.08-.19.09-.22.77-4.29,3.77-6.92,6.78-9.25,1.38-1.07,2.95-1.88,4.46-2.66l.47-.24c2.4-1.25,3.97-2.81,4.8-4.78.5-1.19.46-2.33-.13-3.51-.44-.87-1.03-1.6-2-2.44-.94-.81-2.12-.85-3.48-.89-3.08-.07-4.95,2.52-5.62,4.78-.47,1.6-1.6,1.96-2.46,1.99-.13,0-.26.02-.39.03-.77.07-2.07.18-2.9-1.17-.4-.65-.52-1.35-.35-2.09.04-.18.08-.36.11-.55.13-.65.27-1.39.65-2.06,1.11-1.95,2.48-4.37,5.27-5.52,1.7-.7,3.45-1.4,5.4-1.41,4.24.02,7.65,1.58,10.11,4.64,1.16,1.44,1.91,2.95,2.31,4.62.21.87.38,1.93.08,3.13-.1.39-.15.79-.21,1.19-.11.75-.23,1.6-.61,2.46-.92,2.08-2.44,3.73-4.66,5.05l-1.19.7c-2.26,1.33-4.59,2.71-6.69,4.3-1,.76-2.11,1.69-2.79,2.91-.25.45-.38.99-.45,1.43.11,0,.23.02.34.03.49.04.95.08,1.46-.01.1-.02.2-.02.3-.01,1.46.14,2.97.11,4.56.08,1.43-.03,2.91-.06,4.4.04.39.03.81.08,1.24.17.86.17,1.47.74,1.59,1.48.17,1.05.28,2.43-.42,3.75-.46.85-1.46,1.32-2.51,1.18-.69-.1-1.41-.03-2.16.03-.27.02-.54.05-.81.06-.3.02-.61.03-.94.03Zm-6.23-2.61c1.14,0,2.29.05,3.45.21,1.37.2,2.54.26,3.57.2.26-.02.51-.04.76-.06.84-.07,1.72-.15,2.65-.02.15.02.27-.03.3-.06.27-.51.35-1.16.23-2.06-.32-.06-.6-.1-.87-.12-1.39-.1-2.82-.07-4.2-.04-1.54.03-3.13.06-4.67-.08-.72.11-1.34.06-1.88.01-.16-.01-.31-.03-.47-.04-.39-.02-1.11-.06-1.57-.63-.43-.53-.37-1.16-.29-1.71.1-.65.27-1.51.73-2.32.88-1.57,2.2-2.69,3.38-3.58,2.2-1.66,4.59-3.07,6.89-4.44l1.18-.7c1.84-1.09,3.04-2.38,3.78-4.06.26-.59.35-1.22.45-1.89.07-.46.13-.93.26-1.42.15-.6.13-1.2-.08-2.09-.32-1.35-.93-2.58-1.88-3.76-2.06-2.56-4.81-3.81-8.42-3.83-1.56.03-2.99.59-4.52,1.23-1.99.82-3.01,2.43-4.25,4.6-.21.36-.31.87-.41,1.41-.04.21-.08.41-.13.61-.04.17-.02.29.08.45.1.17.13.21.87.15.17-.01.34-.03.51-.03.23,0,.32-.01.44-.43,1.16-3.95,4.2-6.45,7.77-6.34,1.56.04,3.32.09,4.85,1.42,1.18,1.02,1.96,1.98,2.52,3.11.88,1.75.94,3.55.19,5.33-1.04,2.46-2.94,4.38-5.8,5.87l-.47.25c-1.42.74-2.9,1.5-4.12,2.45-2.78,2.16-5.33,4.38-5.97,7.92-.05.27-.15.5-.22.68l-.07.17c-.32.9-.49,1.89-.54,3.11-.01.26.02.36.02.37,0-.01.09.06.38.15.18.06.42.06.71.05h.31c.82,0,1.64-.01,2.47-.03.7-.02,1.4-.04,2.12-.04Zm10.92-2.09s0,0,0,0c0,0,0,0,0,0Z"/>
    </g>
    <g>
      <path class="cls-1" d="m49.96,264.82c-4.77-.13-7.66-1.17-9.7-4.18-2.33-3.42-3.24-7.21-3.18-11.29.02-1.08-.16-2.14-.15-3.23.02-1.87.23-3.71.53-5.53.38-2.33,1.38-4.4,2.87-6.26,1.03-1.28,2.18-2.31,3.65-3.04,1.61-.8,3.34-.94,5.04-.98,2.02-.05,4.01.31,5.75,1.55,1.62,1.15,2.77,2.64,3.18,4.56.83,3.92,1.04,7.91,1.08,11.9.03,2.81,0,5.66-.73,8.4-.51,1.92-1.11,3.96-2.77,5.15-2.04,1.48-4.11,3.14-5.57,2.94h0Zm-.38-30.67c-.29.02-.58.03-.86.05-2.56.13-4.49,1.37-6.02,3.39-.66.88-.75,1.91-.96,2.92-.35,1.63-.72,3.26-.67,4.93.05,1.79.09,3.58.11,5.37.03,2.45.67,4.76,2.15,6.75,1,1.34,2.14,2.52,3.85,2.93,2.79.66,4.74-.85,6.49-2.69,1.01-1.06,1.13-2.55,1.33-3.94.18-1.23.09-2.48.04-3.73-.1-2.36.23-4.71.07-7.08-.17-2.41-.39-4.76-1.74-6.89-.93-1.46-2.07-2.2-3.78-2h0Z"/>
      <path class="cls-1" d="m50.21,265.92c-.11,0-.21,0-.32-.02-5.34-.15-8.39-1.5-10.53-4.65-2.34-3.44-3.44-7.34-3.36-11.92,0-.5-.03-1.01-.07-1.54-.04-.56-.08-1.12-.08-1.68.02-1.69.19-3.5.54-5.7.39-2.41,1.43-4.69,3.1-6.76,1.22-1.52,2.49-2.58,4.01-3.33,1.8-.89,3.7-1.05,5.5-1.09,2.56-.06,4.66.51,6.41,1.75,1.96,1.39,3.17,3.14,3.62,5.23.91,4.28,1.07,8.52,1.1,12.12.03,2.95,0,5.83-.77,8.69-.48,1.81-1.14,4.28-3.18,5.76l-.65.47c-1.89,1.38-3.68,2.69-5.31,2.69Zm-.85-34.53c-.1,0-.21,0-.31,0-1.78.04-3.24.21-4.58.87-1.23.61-2.27,1.48-3.28,2.74-1.45,1.8-2.31,3.68-2.65,5.75-.34,2.08-.5,3.79-.52,5.37,0,.5.04,1,.07,1.49.04.56.09,1.14.08,1.74-.07,4.11.91,7.6,2.99,10.66,1.75,2.57,4.14,3.57,8.83,3.7.04,0,.08,0,.12,0,.87.12,2.68-1.2,4.13-2.26l.66-.48c1.31-.94,1.84-2.62,2.35-4.55.69-2.6.72-5.32.7-8.11-.04-3.48-.19-7.59-1.06-11.69-.33-1.55-1.23-2.83-2.74-3.9-1.29-.91-2.85-1.36-4.79-1.36Zm-.86,30.33c-.5,0-1.02-.06-1.56-.19-2.13-.51-3.46-1.97-4.47-3.34-1.53-2.06-2.33-4.54-2.36-7.39-.02-1.78-.06-3.56-.11-5.35-.05-1.71.3-3.36.64-4.94l.05-.25c.04-.18.07-.35.1-.53.17-.89.36-1.9,1.05-2.82,1.81-2.39,4.11-3.68,6.83-3.82l.83-.04c2.01-.22,3.58.6,4.79,2.5,1.45,2.28,1.72,4.7,1.91,7.4.09,1.33.04,2.66-.02,3.93-.05,1.1-.09,2.13-.05,3.18l.02.49c.05,1.12.1,2.27-.07,3.44l-.05.38c-.19,1.38-.41,2.94-1.56,4.15-1.54,1.62-3.42,3.19-5.97,3.19Zm1.61-26.52c-.13,0-.26,0-.4.02-.02,0-.04,0-.07,0l-.87.05c-2.07.1-3.77,1.07-5.2,2.96-.39.51-.51,1.16-.65,1.91-.04.19-.07.39-.11.58l-.05.25c-.33,1.53-.64,2.97-.6,4.43.05,1.79.09,3.59.11,5.38.03,2.37.68,4.43,1.93,6.11.82,1.11,1.79,2.18,3.23,2.52,2.16.51,3.74-.58,5.45-2.38.67-.71.82-1.8.99-2.96l.06-.39c.14-.97.1-1.97.05-3.03l-.02-.5c-.05-1.13,0-2.26.05-3.36.05-1.28.1-2.48.02-3.69-.17-2.48-.4-4.53-1.58-6.38-.68-1.07-1.38-1.53-2.34-1.53Zm-.52-1.06h.01-.01Z"/>
    </g>
  </g>
  <g>
    <g>
      <path class="cls-1" d="m415.85,264.83c-1.52.03-1.95-.39-1.72-1.88.12-.78.05-1.56.07-2.33.13-4.02.21-8.04.17-12.06-.05-4.03,0-8.05,0-12.08,0-.28.13-.64-.16-.8-.37-.19-.6.18-.82.4-2.01,2.04-4.67,3.04-7.12,4.35-.49.26-.89.13-1.12-.38-.32-.71-.67-1.42-.93-2.15-.27-.76-.07-1.14.67-1.46.64-.28,1.3-.52,1.95-.79,2.16-.91,3.63-2.66,5.16-4.31.55-.59,1.07-.92,1.88-.96.99-.05,1.98-.09,2.96.02,1.14.13,1.46.6,1.44,1.72-.05,2.58-.03,5.17-.09,7.75-.07,2.74.06,5.48.02,8.22-.07,5.09-.3,10.18-.15,15.27.03,1.1-.21,1.37-1.34,1.46-.29.02-.58,0-.87,0Z"/>
      <path class="cls-1" d="m416.4,265.92c-.1,0-.2,0-.29,0h-.25c-.78.02-1.75-.06-2.36-.76-.61-.7-.56-1.63-.44-2.37.07-.43.06-.89.06-1.38,0-.27,0-.55,0-.82.16-4.84.21-8.54.17-12.01-.03-2.75-.02-5.51-.01-8.26,0-.89,0-1.77,0-2.66-1.48,1.23-3.16,2.06-4.79,2.87-.57.28-1.15.57-1.71.87-.65.35-1.18.28-1.52.17-.34-.11-.8-.39-1.1-1.06l-.2-.45c-.26-.57-.54-1.17-.76-1.79-.46-1.28,0-2.28,1.27-2.82.35-.15.7-.29,1.05-.42.3-.12.61-.24.91-.37,1.73-.73,2.99-2.1,4.33-3.55l.46-.49c.57-.61,1.32-1.24,2.62-1.3,1.05-.06,2.08-.1,3.14.03,1.65.19,2.44,1.11,2.41,2.83-.02,1.2-.03,2.4-.04,3.6,0,1.39-.02,2.77-.05,4.15-.04,1.45-.01,2.94,0,4.38.02,1.28.04,2.55.02,3.83-.02,1.49-.06,2.99-.09,4.48-.08,3.52-.17,7.17-.06,10.74.05,1.67-.65,2.45-2.34,2.58-.14.01-.27.01-.41.01Zm-.54-2.18h.3c.16,0,.32.01.48,0,.15-.01.26-.03.34-.04,0-.07,0-.17,0-.3-.11-3.63-.02-7.3.06-10.86.03-1.49.07-2.97.09-4.46.02-1.26,0-2.51-.02-3.77-.02-1.46-.04-2.97,0-4.47.03-1.37.04-2.74.05-4.12,0-1.21.02-2.42.04-3.63,0-.38-.04-.51-.05-.54,0,0-.12-.05-.43-.08-.89-.1-1.83-.06-2.78-.01-.45.02-.72.17-1.14.61l-.45.48c-1.44,1.56-2.92,3.17-5.09,4.08-.31.13-.63.26-.95.39-.33.13-.66.26-.99.4-.04.02-.07.03-.09.04,0,.02.01.03.02.05.19.54.43,1.06.69,1.61l.09.19c.51-.26,1.01-.51,1.51-.76,1.89-.93,3.67-1.82,5.09-3.25.87-.96,1.61-.85,2.1-.6.58.3.84.86.76,1.67,0,1.38-.01,2.66-.02,3.94-.01,2.74-.02,5.48.01,8.22.04,3.5-.01,7.24-.17,12.11,0,.24,0,.49,0,.73,0,.55.01,1.12-.08,1.73-.05.31-.05.49-.04.58.1.02.3.05.66.04h.02Z"/>
    </g>
    <g>
      <path class="cls-1" d="m434.43,247.42c-.38-3.16.56-6.13,1.64-9.01.8-2.16,2.27-3.94,4.13-5.49,2.18-1.81,4.63-2.04,7.26-2.01,2.14.03,3.88.98,5.48,2.21,1.34,1.03,2.06,2.49,2.53,4.08.13.45,0,.8-.5.95-.43.13-.86.28-1.3.37-1.37.27-1.72.19-2.28-1.03-1.26-2.75-3.57-3.01-5.84-2.69-1.64.23-2.9,1.04-4.04,2.28-2.5,2.75-3,6.11-3.37,9.54-.05.44-.09.89-.07,1.33.04.74.3.87.92.5.14-.08.28-.18.4-.28,2.51-2.23,5.56-2.61,8.68-2.03,1.63.3,3.45.59,4.68,1.96,2.43,2.68,4.17,5.6,3.31,9.41-1.1,4.88-3.94,6.95-7.77,7.79-4.03.88-7.55-.27-10.33-3.36-1.28-1.42-2.07-3.05-2.45-4.92-.45-2.22-.8-4.45-1.06-6.69-.11-.96-.02-1.94-.02-2.91h0Zm17.98,8.5c.24-3.19-2.97-6.36-6.8-6.33-4.12.04-6.29,3.57-6.23,6.6.06,2.98,3.46,5.95,6.78,5.8,3.56-.16,6.34-2.3,6.25-6.07h0Z"/>
      <path class="cls-1" d="m445.74,266.66c-3.28,0-6.21-1.36-8.6-4-1.39-1.55-2.28-3.32-2.71-5.43-.45-2.19-.81-4.47-1.07-6.78-.08-.74-.06-1.46-.04-2.15,0-.28.02-.55.02-.83-.39-3.44.68-6.68,1.71-9.44.82-2.19,2.28-4.14,4.46-5.94,2.59-2.15,5.47-2.29,7.97-2.26,2.67.04,4.68,1.32,6.13,2.43,1.36,1.05,2.29,2.52,2.91,4.63.31,1.04-.19,1.99-1.22,2.3l-.33.1c-.36.11-.71.22-1.08.3-1.7.34-2.65.18-3.48-1.65-.83-1.82-2.19-2.42-4.7-2.06-1.29.18-2.33.78-3.39,1.94-2.23,2.45-2.72,5.49-3.09,8.92,0,.06-.01.11-.02.17,2.43-1.88,5.47-2.5,9.06-1.84l.18.03c1.64.3,3.67.68,5.11,2.26,2.2,2.43,4.6,5.81,3.57,10.38-1.09,4.83-3.82,7.57-8.6,8.61-.95.21-1.88.31-2.78.31Zm1.29-34.67c-2.49,0-4.4.33-6.13,1.76-1.88,1.56-3.13,3.21-3.81,5.03-.99,2.66-1.93,5.51-1.58,8.5,0,.04,0,.09,0,.13,0,.31,0,.62-.02.93-.02.65-.04,1.26.03,1.85.26,2.25.61,4.47,1.04,6.6.35,1.72,1.07,3.16,2.19,4.41,2.52,2.8,5.65,3.82,9.29,3.03,3.91-.85,6.05-3,6.94-6.96.64-2.84-.28-5.36-3.06-8.44-.94-1.04-2.44-1.32-3.89-1.58l-.18-.03c-3.21-.59-5.74-.01-7.76,1.77-.18.15-.37.29-.57.41-.25.15-1,.58-1.75.18-.75-.41-.79-1.28-.81-1.57-.02-.51.02-1,.08-1.5.4-3.68.98-7.22,3.65-10.15,1.38-1.52,2.92-2.38,4.69-2.63,1.27-.18,5.14-.72,6.99,3.32.2.44.29.54.31.55,0-.02.2-.02.77-.13.29-.06.57-.15.85-.24h.03c-.49-1.51-1.14-2.53-2.06-3.23-1.76-1.35-3.25-1.96-4.83-1.98-.14,0-.28,0-.42,0Zm-1.11,31.08c-1.86,0-3.84-.82-5.34-2.22-1.42-1.33-2.26-3.02-2.29-4.65-.04-2.03.77-4.11,2.18-5.56,1.35-1.39,3.12-2.13,5.13-2.15,2.27-.01,4.47.93,6.02,2.59,1.31,1.4,1.99,3.16,1.88,4.85.06,4.06-2.86,6.92-7.29,7.13-.1,0-.19,0-.29,0Zm-.25-12.4h-.05c-1.42.01-2.66.53-3.59,1.49-1.01,1.04-1.59,2.54-1.56,4,.02,1.04.61,2.17,1.6,3.1,1.16,1.08,2.67,1.7,4.04,1.63,2.57-.12,5.29-1.48,5.22-4.96,0-.04,0-.07,0-.11.08-1.1-.39-2.29-1.29-3.25-1.12-1.19-2.75-1.9-4.37-1.9Z"/>
    </g>
  </g>
</svg>