<?xml version="1.0" encoding="UTF-8"?>
<svg id="Layer_1" data-name="Layer 1" xmlns="http://www.w3.org/2000/svg" viewBox="0 0 694.84 309.1">
  <defs>
    <style>
      .cls-1 {
        stroke-width: 0px;
      }
    </style>
  </defs>
  <g>
    <g>
      <path class="cls-1" d="m.13,86.65c-.01-2.1.04-4.24.1-6.3.05-2.06.11-4.19.1-6.29-.02-3.08-.09-6.2-.16-9.23-.07-2.86-.14-5.81-.16-8.71-.03-4.17.02-8.4.07-12.5l.04-3.05c.01-1.01.05-2.02.08-3.03.04-1.07.08-2.13.09-3.2.03-3.61.06-7.45.02-11.26-.02-2.18-.07-4.36-.11-6.54-.07-3.46-.13-7.03-.12-10.54,0-.86.25-1.77.52-2.72.08-.3.17-.61.25-.91.89-.07,1.76-.15,2.61-.22,2.54-.22,4.93-.42,7.33-.55.49-.02,1.02.09,1.58.2.5.1,1.01.21,1.55.24l.56.02c5.2.23,10.57.46,15.86.58.9.02,1.8.05,2.7.07,3.52.11,7.16.22,10.73-.12,6.17-.58,12.43-.36,18.49-.14l2.64.09c1.22.04,2.45-.06,3.64-.15.95-.07,1.94-.15,2.89-.16h.06c4.27,0,8.36,1.23,12.19,2.49,2.24.74,4.15,1.86,5.83,3.41.81.76,1.77,1.34,2.69,1.9,1.04.64,2.02,1.24,2.76,2.04,2.91,3.16,6.02,6.97,6.06,12.29,0,.51.01,1.01.02,1.51.05,3.05.1,5.93-.84,8.81-.64,1.96-1.3,3.69-2.86,5.02-.63.54-1.08,1.21-1.38,1.66-.08.12-.14.21-.19.28l-.37.47.39.45c.57.67,1.13,1.31,1.69,1.95,1.22,1.4,2.37,2.72,3.47,4.1,1.63,2.06,2.08,4.54,2.55,7.18.09.51.18,1.02.28,1.53.15.78.19,1.6.22,2.46.01.32.03.65.05.97.53,8.5-2.27,15.15-8.31,19.76-6.86,5.24-13.88,7.7-21.46,7.5-4.56-.12-9.2.03-13.68.18-3.31.11-6.73.22-10.08.22-4.28,0-8.68-.1-12.92-.19-4.13-.09-8.4-.19-12.6-.19h-.11c-4.23,0-8.53.15-12.68.29-2.15.07-4.3.15-6.44.2-1.28.03-2.57.02-3.85-.05-1.63-.08-1.7-.09-1.71-1.83h0Zm16.59-33.7c-.25,5.66-.49,11,.23,16.42l.08.58.59.05c1.18.1,2.34.25,3.46.39,1.89.24,3.7.47,5.48.47.56,0,1.11-.02,1.67-.07,2.2-.21,4.45-.13,6.63-.06,2.86.09,5.83.19,8.76-.33.14-.02.3-.04.46-.03l5.49.08c2.66.04,5.32.08,7.99.12l2.65.04c2.86.04,5.81.09,8.72.08.69,0,1.38-.11,2.05-.21.93-.14,1.81-.27,2.59-.12,2.35.44,4.62-.09,6.56-1.55,2.19-1.64,3.73-4.36,4-7.11.32-3.2-.69-6.25-2.71-8.16-1.29-1.22-3.59-2.55-7.2-1.97-1.21.19-2.5.19-3.74.19h-.36c-7.16,0-14.32-.02-21.47-.03l-12.13-.02c-5.27-.01-10.54-.02-15.82-.01-.76,0-1.48.09-2.25.19-.35.04-.7.09-1.06.12l-.63.06-.04.89h0Zm.28-17.76l.12.59h2.77c.69,0,1.38,0,2.06,0,.81,0,1.61,0,2.41-.01,2.57-.03,5.15-.07,7.72-.11,4.93-.08,10.02-.16,15.03-.16h.06c4.26,0,8.59.06,12.78.11,3.57.05,7.27.1,10.9.11,1.78,0,3.66-.16,5.78-.52,2.69-.45,3.39-2.53,3.71-4.28.28-1.59-.04-2.9-.35-4.17l-.1-.43c-.82-3.46-2.79-5.18-6.17-5.43-2.26-.16-4.58-.23-6.9-.23-.58,0-1.14-.05-1.74-.1-1.27-.11-2.58-.23-4.01.17-.89.24-1.97.05-3.12-.15-.48-.09-.99-.18-1.48-.23v-.05s-.24.01-.24.01c-.17.02-.33.05-.5.08l-1.36.18h-.04c-.71-.01-1.43-.06-2.14-.1-.98-.06-1.99-.13-3-.1-1.32.03-2.66.11-3.96.19-1.59.09-3.23.19-4.83.19-1.35,0-2.71-.08-4.04-.16-1.53-.1-3.12-.19-4.68-.16-3.24.07-6.43.25-9.81.44-1.43.08-2.88.16-4.35.23l-.69.03v.69c0,1.3-.08,2.63-.15,3.92-.17,3-.34,6.1.32,9.44Z"/>
      <path class="cls-1" d="m213.6,69.64c1.46-.07,2.37.14,2.86.66.48.51.65,1.42.51,2.77-.33,3.18-.39,6.42-.44,9.56-.04,1.66-.08,3.32-.09,4.97-4.96.21-9.94.49-14.94.49s-10.16-.06-15.24-.12l-4.68-.05c-3.67-.04-8.01-.08-12.42-.06-1.57,0-3.15.09-4.68.18-1.26.07-2.57.14-3.84.17-1.05.02-2.14-.02-3.18-.07-.99-.04-2.01-.08-3.02-.07-5.27.05-10.63.14-15.82.23l-2.94.05c-1.41.02-2.81.05-4.22.08-2.4.05-4.81.1-7.21.12-.53,0-.85-.06-.98-.2-.14-.14-.19-.49-.16-.98.2-2.83.21-5.72.23-8.51,0-.8,0-1.61.02-2.41.02-1.88.06-3.76.1-5.65.1-4.56.2-9.27,0-13.91-.25-5.54-.24-11.18-.23-16.63,0-2.6,0-5.21-.02-7.81-.03-3.62.01-7.3.06-10.86.03-2.73.06-5.54.06-8.32s-.14-5.31-.27-7.89l-.03-.57c-.06-1.12.32-1.75,1.46-2.42,1.1-.64,2.25-.78,3.46-.78.46,0,.93.02,1.41.04.49.02.98.05,1.46.04,5.4,0,10.89.1,16.19.19,2.94.05,5.88.11,8.82.14,1.15.01,2.3.05,3.45.08,3.34.1,6.67.03,10.01.01,2.63-.01,5.42-.54,8.14-.54,2.85,0,5.69.09,8.54.19,3.01.1,6.13.21,9.21.19,5.79-.03,11.66-.04,17.67-.04h.35c.88,0,1.72,0,2.51.14.38.07,1.26.34,1.26,1.37,0,4.93-.03,10.03-.11,15.6,0,.12-.14.38-.28.63-.04.08-.09.16-.13.25-1.53.05-3.07.11-4.61.17-3.8.15-7.73.3-11.59.37-2.68.05-5.55.07-9.24.07-.21,0-.42,0-.64,0-.85,0-1.7.07-2.52.13-.65.05-1.32.1-1.97.12-.81.02-1.55-.15-2.34-.32-.66-.15-1.34-.3-2.08-.35-.92-.06-1.87,0-2.8.06-.75.04-1.53.09-2.26.07l-1.13-.03c-2-.05-4.06-.1-6.1-.11-5.88-.05-11.15-.04-16.09,0-2.79.03-5.55.11-8.48.2-1.32.04-2.66.08-4.04.12l-.57.02-.12.56c-.86,3.93-.77,8.06-.68,12.05l.04,1.86.73-.02c.42,0,.84-.02,1.26-.03l-.13.05,1.39.09,1.09-.2c.6-.02,1.2-.03,1.8-.05,4.12-.11,8.01-.23,11.99-.21,3.55.01,7.16.13,10.66.23,2.66.08,5.42.17,8.13.21,2.37.04,4.77-.01,7.09-.06,1.24-.03,2.48-.05,3.71-.06,1.44-.02,2.48.06,2.9.47.41.41.5,1.43.5,2.94v.75c0,1.73,0,3.53.17,5.29.2,1.99-.43,3.83-1.09,5.79-.28.82-.57,1.67-.81,2.56-.99.08-1.99.17-2.98.27-2.61.24-5.3.49-7.95.55-2.44.05-4.94-.04-7.35-.13-1.68-.06-3.42-.13-5.13-.14-1.09-.01-2.17.08-3.22.16-.88.07-1.79.14-2.68.16-.81.01-1.57-.08-2.4-.18-1.02-.13-2.08-.26-3.18-.16-2.34.19-4.71.1-7.01,0-1.34-.05-2.72-.11-4.09-.11-.69,0-1.33.2-2.01.42-.3.1-.62.19-.96.28l-.55.14v15.36l.65.08c.35.04.68.09.99.13.64.09,1.23.17,1.84.19,1.45.05,2.93.15,4.36.25,3.49.23,7.1.48,10.61.08,1.89-.21,3.85-.16,5.74-.11,1.37.04,2.79.08,4.19.02.3-.01.6-.03.9-.05h.58s.62-.02.62-.02l.49-.1c.59-.05,1.17-.1,1.75-.14,1.89-.16,3.85-.33,5.81-.34,4.55-.03,9.19.16,13.66.34,4.16.17,8.45.35,12.68.35,2.57.05,5.17-.09,7.68-.21.65-.03,1.31-.07,1.96-.1h0Z"/>
      <path class="cls-1" d="m284.77,48.1c-1.52,2-2.18,3.84-2.15,5.97.09,5.09.09,10.26.09,15.27,0,3.6,0,7.2.03,10.8.01,1.32.1,2.77.19,4.18l.09,1.56c.09,1.54-.57,2.41-1.96,2.63-2.74.43-5.59.3-8.34.17-1.35-.06-2.74-.13-4.13-.13-.16,0-.32,0-.47,0-.59,0-1.19.01-1.3-.03-.1-.16-.11-1.01-.12-1.56-.03-3.35.01-6.71.06-9.96.03-2.3.07-4.6.12-6.9.08-4.14.16-8.42.17-12.63.01-4.55-1.5-8.34-4.61-11.58-1.73-1.8-3.3-3.83-4.82-5.8-.84-1.09-1.71-2.21-2.6-3.29-1.43-1.73-2.93-3.44-4.38-5.09l-.94-1.07c-2.81-3.21-5.61-6.41-8.42-9.61-4.17-4.75-8.33-9.5-12.49-14.26-.17-.2-.35-.39-.53-.58-1.06-1.13-1.69-1.88-1.2-3.14.54-1.38,1.58-1.43,3.21-1.4.26,0,.52.01.77,0,2.45-.03,4.95-.02,7.36,0,2.29.02,4.66.03,6.99,0,1.36-.02,2.28.44,3.27,1.61,2.74,3.25,5.57,6.5,8.32,9.64,1.79,2.04,3.57,4.09,5.34,6.14,1.48,1.72,2.96,3.5,4.38,5.21,1.18,1.42,2.36,2.84,3.56,4.25.7.82,1.44,1.61,2.3,2.52.44.47.92.97,1.45,1.54l.55.59,1.75-1.99c.76-.86,1.43-1.62,2.08-2.38l2.56-2.97c4.13-4.8,8.27-9.6,12.39-14.41l.35-.41c2.02-2.36,4.11-4.8,6.06-7.29,1.21-1.55,2.31-2.13,3.95-2.1,3.26.08,6.57.07,9.76.06,1.74,0,3.47-.01,5.2,0,1.59,0,2.59.08,3.1,1.35.46,1.17-.14,1.96-1.11,3.04-1.08,1.2-2.18,2.4-3.27,3.59-2.01,2.19-4.09,4.46-6.07,6.75-1.7,1.97-3.33,4.04-4.91,6.04-.83,1.05-1.66,2.09-2.49,3.13-.33.41-.69.8-1.06,1.21-.24.27-.49.53-.73.81l-3.21,3.69c-3.03,3.49-6.17,7.1-9.23,10.68-1.55,1.81-3.16,3.82-4.91,6.14Z"/>
      <path class="cls-1" d="m358.74,3.33c5.89-1.28,12.06-2.1,17.38-2.77C379.07.19,382.07,0,385.16,0,389.42,0,393.86.35,398.55,1.06c6.42.97,12.05,2.41,17.19,4.41,9.12,3.54,15.68,8.69,20.06,15.74.4.64.83,1.27,1.25,1.88.92,1.35,1.8,2.62,2.36,4.02,1.18,2.92,2.07,5.98,2.66,9.08.49,2.6.65,5.33.81,7.97l.11,1.86c.16,2.5.32,5.09.14,7.58-.1,1.37-.74,2.79-1.35,4.17l-.54,1.21c-1.05,2.37-2.13,4.82-3.47,7.06-4.05,6.78-9.42,11.68-16.4,14.98-6.3,2.98-12.82,4.47-18.36,5.53-3.38.65-6.83,1.02-10.48,1.41-1.67.18-3.38.36-5.14.58-1.46-.11-2.98-.23-4.52-.35-3.84-.29-7.81-.59-11.81-.94-1.84-.16-3.72-.37-5.53-.56-1.78-.2-3.62-.4-5.44-.56-3.05-.27-5.89-1.45-8.64-2.59-.45-.19-.89-.37-1.34-.55-3.75-1.52-6.92-3.09-9.7-4.78-2.78-1.69-5.02-3.52-6.68-5.44-2.09-2.42-4.25-4.92-5.62-7.77-.72-1.49-1.31-3.09-1.89-4.64-.57-1.54-1.17-3.14-1.9-4.67-1-2.12-.92-4.89-.85-7.57.02-.78.04-1.54.04-2.25-.05-5.97.92-11.66,2.87-16.93,1.28-3.46,3.52-6.7,5.54-9.41l.22-.29c2.14-2.89,4.36-5.87,7.57-7.74.6-.35,1.24-.66,1.87-.97,1.17-.57,2.37-1.16,3.39-2,3.7-3.04,8.34-4.04,12.83-5l.93-.2h0Zm12.55,14.67h-.11c-7.13.53-13.06,2.4-18.11,5.72-2.56,1.68-4.79,3.91-6.82,6.82-3.79,5.41-5.1,11.46-3.91,17.97.35,1.89.9,3.91,1.69,6.17,1.13,3.23,3.26,5.86,5.32,8.41l.48.6c2.72,3.37,6.33,5.58,11.39,6.95,5.86,1.59,15.1,2.25,21.24,2.32h.08c1.8-.19,5.48-.48,8.72-.74l2.58-.21c2.83-.23,6.18-.57,9.59-1.34,6.05-1.36,10.91-4.77,14.88-10.43,3.88-5.54,5.51-11.91,4.85-18.93-.44-4.66-2.33-9.01-5.49-12.58-3.13-3.54-7.33-5.87-11.36-7.95-4.45-2.3-10.38-2.72-15.61-3.1-.88-.06-1.74-.12-2.56-.19-4.56-.38-12.25.17-16.84.51Z"/>
      <path class="cls-1" d="m493.39,40.49c-.81-.86-1.64-1.71-2.5-2.54-3.76-3.67-6.34-8.33-9.67-12.36-.59-.71-1.19-1.44-1.83-2.22-.29-.35-.53-.69-.9-.93-1.44,3.41-1.11,8.61-1.03,12.28.02.98.04,1.95.04,2.93,0,12.84.07,25.92.14,37.16.02,2.48.08,5.01.15,7.45.03,1.29.07,2.57.1,3.86.04,1.87.02,1.89-1.8,1.96-4.4.17-9.08.34-13.76.4-.51.01-.85-.07-1.01-.23-.2-.2-.23-.63-.21-.95.3-7.55.48-14.88.54-21.8.02-1.99-.14-3.99-.29-5.93-.09-1.14-.18-2.32-.23-3.47-.06-1.27-.05-2.58-.04-3.85l.02-5.42c.01-4.84.02-9.68.07-14.52.04-5.12.1-10.24.17-15.36.05-3.57.39-6.98-.19-10.51-.75-4.57,2.44-4.19,5.82-4.38,5.5-.31,11.19-.63,16.75.1,1.84.24,3.23,1.07,4.51,2.69,1.33,1.68,2.78,3.3,4.19,4.86,1.16,1.29,2.35,2.62,3.46,3.97,1.23,1.5,2.41,3.08,3.55,4.62.97,1.3,1.96,2.64,2.99,3.93.84,1.05,1.67,2.13,2.5,3.2,2.37,3.08,4.83,6.26,7.65,9.01,2.33,2.27,4.42,4.8,6.44,7.25,1.14,1.38,2.31,2.8,3.52,4.17,2.43,2.75,4.74,5.71,6.98,8.57.61.78,1.22,1.56,1.83,2.34.91,1.15,1.8,2.36,2.66,3.52.72.97,1.44,1.95,2.18,2.9.31.4.68.71,1.11,1.07.21.18.44.38.7.61.34.34.69.65,1.1.85.44-1.78.11-4.04.11-5.9,0-3.18,0-6.23,0-9.28,0-2.58.02-5.16.04-7.74.02-4.42.05-8.84.04-13.25,0-1.52-.05-3.06-.1-4.55-.05-1.6-.11-3.26-.1-4.89.02-4.67.14-9.3.26-14.02.02-.79.17-1.63.43-2.42.14-.44.42-.82.52-.87l.44-.12c1.61-.43,3.27-.88,4.87-.91,1.54-.03,3.12.12,4.65.28.89.09,1.81.18,2.72.23,1.19.07,1.98.35,2.4.85.39.46.53,1.17.43,2.17-.77,7.46-.45,15.01-.14,22.31l.07,1.79c.11,2.64.01,5.35-.08,7.96-.04,1.24-.09,2.48-.11,3.71-.02,1.19-.05,2.38-.08,3.58-.06,2.78-.13,5.66-.14,8.5-.03,10.88-.02,19.74.03,27.89,0,1.02.14,2.04.28,3.02.11.82.22,1.6.25,2.38.04.87-.08,1.42-.36,1.71-.31.31-.94.43-1.98.4-2.97-.12-5.99-.16-8.91-.2-1.3-.02-2.6-.04-3.89-.06l-2.02-.04c-2.17-.04-4.41-.07-6.62-.17-.31-.02-.78-.25-.98-.5-1.86-2.32-3.69-4.66-5.53-7-1.28-1.63-2.55-3.25-3.83-4.87-.49-.62-1.04-1.21-1.56-1.77-.28-.3-.55-.6-.82-.9l-.33-.37c-.43-.48-.83-.92-1.2-1.4l-.55-.71c-1.97-2.53-4.01-5.15-5.98-7.75-1.78-2.36-3.55-4.73-5.31-7.1-.89-1.19-1.78-2.39-2.66-3.58-.3-.4-.61-.8-.94-1.19-2.97-3.56-5.87-7.09-9.03-10.43h0Z"/>
      <path class="cls-1" d="m693.83,35.33c.68,4.48,1.37,9.12.82,13.71-.09.7,0,1.41.06,1.98.37,3.24-.22,6.5-1.87,10.26-.36.82-.64,1.67-.9,2.5-.32.98-.62,1.91-1.04,2.77l-.2.4c-1.18,2.42-2.4,4.93-3.97,7.08-2.86,3.92-5.91,6.72-9.61,8.82-3.46,1.97-7.04,4-11.06,4.45-.87.1-1.73.21-2.6.31-3.34.42-6.79.85-10.26.56-2.72-.23-5.48-.09-8.16.04-1.78.09-3.62.18-5.43.16-2.25-.02-4.55-.17-6.78-.32-1.77-.11-3.59-.23-5.39-.29-1.42-.04-2.86.01-4.25.07-1.04.04-2.12.08-3.17.08-2.53,0-5.1-.05-7.58-.1-1.03-.02-2.06-.04-3.08-.06-.49,0-.99-.03-1.49-.06-1.07-.05-2.17-.11-3.27,0-4.97.49-10.06.53-14.97.58-3.47.03-7.05.06-10.58.25-.35.02-.8,0-1-.19-.19-.19-.23-.64-.22-.98.04-2.07.05-4.18.06-6.22,0-1.24,0-2.48.02-3.72.02-2.13.05-4.26.08-6.38.06-4.48.13-9.11.1-13.67-.02-2.19-.15-4.4-.28-6.55-.12-2.03-.25-4.12-.27-6.18-.04-3.02.07-6.11.17-9.09.04-1.16.08-2.32.11-3.47.04-1.35.09-2.7.14-4.05.1-2.68.21-5.44.19-8.17-.02-2.61-.13-5.26-.23-7.82-.09-2.26-.18-4.6-.22-6.89-.01-.8.21-1.62.43-2.49.07-.25.13-.49.19-.76,1.09-.03,2.18-.07,3.27-.11,3.5-.14,7.12-.27,10.64.01,4.86.4,9.75.59,14.63.65,2.41.03,4.82.03,7.23,0,1.21,0,2.42-.02,3.63-.04.56,0,1.11.1,1.66.08,1.72-.11,3.44-.17,5.15-.21,6.47-.15,13.05-.16,19.41-.18,4.09,0,8.32-.02,12.47-.06.98,0,1.95-.02,2.93-.02,4.13-.02,7.99,1.15,12.21,2.57,2.22.75,3.99,1.79,5.56,3.29.95.9,2.05,1.62,3.12,2.31.59.38,1.19.77,1.75,1.18,2.36,1.74,3.8,4.18,5.32,6.76.43.73.86,1.46,1.31,2.17,1.22,1.93,2.3,4.18,3.29,6.88.79,2.14,1.37,4.44,1.72,6.85l.2,1.31h0Zm-17.61.04c-1.69-4.99-4.24-8.67-7.8-11.24-.26-.19-.52-.38-.78-.58-1.39-1.04-2.83-2.12-4.62-2.57-1.64-.41-3.42-.38-5.13-.34-.62.01-1.23.02-1.82.01-4-.07-8.01-.14-12.02-.19-1.45-.02-2.9-.03-4.34-.05-10.84-.11-21.85-.14-32.72-.08h-.22c-12.15.02-12.42.72-12.43,1.55-.02.1-.03.19-.05.29-.05.27-.11.58-.11.9l-.06,3.55c-.07,3.78-.14,7.69-.15,11.53-.06,10.94-.07,21.94-.08,30.29,0,2.84.91,3.76,3.75,3.8,5.46.06,10.94.07,15.11.07h1.27c2.2,0,4.43,0,6.67,0l.82.05,1.07-.06c1.54-.01,3.09-.03,4.63-.05,1.59-.03,3.19-.11,4.74-.18,2.01-.1,4.08-.2,6.11-.19,5.95.03,12.69.07,19.19.46,3.14.19,5.96-.59,9.43-2.58,1.61-.92,2.58-2.29,3.52-3.61.47-.65.91-1.27,1.42-1.83,2.93-3.21,4.16-7.11,4.97-10.5,1.65-6.84,1.53-12.87-.35-18.44Z"/>
    </g>
    <path class="cls-1" d="m3.42,202.32c-.01-2.1.04-4.24.1-6.3.05-2.06.11-4.19.1-6.29-.02-3.08-.09-6.2-.16-9.23-.07-2.86-.14-5.81-.16-8.71-.03-4.17.02-8.4.07-12.5l.04-3.05c.01-1.01.05-2.02.08-3.03.04-1.07.08-2.13.09-3.2.03-3.61.06-7.45.02-11.26-.02-2.18-.06-4.36-.11-6.54-.06-3.46-.13-7.03-.13-10.54,0-.86.25-1.77.52-2.72.08-.3.17-.61.25-.91.89-.07,1.76-.15,2.61-.22,2.54-.22,4.93-.42,7.33-.55.49-.02,1.02.09,1.58.2.5.1,1.01.21,1.55.24l.56.02c5.2.23,10.57.46,15.86.58.9.02,1.8.05,2.7.07,3.52.11,7.16.22,10.73-.12,6.17-.58,12.43-.36,18.49-.14l2.64.09c1.22.04,2.45-.06,3.63-.15.95-.07,1.94-.15,2.89-.16h.06c4.27,0,8.36,1.23,12.18,2.49,2.24.74,4.15,1.86,5.83,3.41.81.76,1.76,1.34,2.69,1.9,1.04.64,2.02,1.24,2.76,2.04,2.91,3.16,6.02,6.97,6.06,12.29,0,.51.01,1.01.02,1.51.05,3.05.1,5.93-.84,8.81-.64,1.96-1.3,3.69-2.86,5.02-.63.54-1.08,1.21-1.38,1.66-.08.12-.14.21-.19.28l-.37.47.39.45c.57.67,1.13,1.31,1.69,1.95,1.22,1.4,2.37,2.72,3.47,4.1,1.63,2.06,2.08,4.54,2.55,7.18.09.51.18,1.02.28,1.53.15.78.19,1.6.22,2.46.01.32.03.65.05.97.53,8.5-2.27,15.15-8.31,19.76-6.86,5.24-13.88,7.7-21.46,7.5-4.56-.12-9.2.03-13.68.18-3.31.11-6.73.22-10.08.22-4.28,0-8.68-.1-12.92-.19-4.13-.09-8.4-.19-12.6-.19h-.11c-4.23,0-8.53.15-12.68.29-2.15.07-4.3.15-6.44.2-1.28.03-2.57.02-3.85-.05-1.63-.08-1.7-.09-1.71-1.83h0Zm16.59-33.7c-.25,5.66-.49,11,.23,16.42l.08.58.59.05c1.18.1,2.34.25,3.46.39,1.89.24,3.7.47,5.48.47.56,0,1.11-.02,1.67-.07,2.2-.21,4.45-.13,6.63-.06,2.86.09,5.83.19,8.76-.33.14-.02.3-.04.46-.03l5.49.08c2.66.04,5.33.08,7.99.12l2.65.04c2.86.04,5.81.09,8.72.08.69,0,1.38-.11,2.05-.21.93-.14,1.81-.27,2.59-.12,2.35.44,4.62-.09,6.56-1.55,2.19-1.64,3.73-4.36,4-7.11.32-3.2-.69-6.25-2.71-8.16-1.29-1.22-3.59-2.55-7.2-1.97-1.21.19-2.5.19-3.74.19h-.36c-7.16,0-14.32-.02-21.47-.03l-12.13-.02c-5.27-.01-10.54-.02-15.82-.01-.76,0-1.48.09-2.25.19-.35.04-.7.09-1.06.12l-.63.06-.04.89h0Zm.28-17.76l.12.59h2.77c.7,0,1.38,0,2.06,0,.81,0,1.61,0,2.41-.01,2.57-.03,5.15-.07,7.72-.11,4.93-.08,10.02-.16,15.03-.16h.06c4.26,0,8.59.06,12.78.11,3.57.05,7.27.1,10.9.11,1.78,0,3.66-.16,5.78-.52,2.69-.45,3.39-2.53,3.71-4.28.28-1.59-.04-2.9-.35-4.17l-.11-.43c-.82-3.46-2.79-5.18-6.17-5.43-2.26-.16-4.58-.23-6.9-.23-.58,0-1.14-.05-1.74-.1-1.27-.11-2.58-.23-4.01.17-.89.24-1.97.05-3.12-.15-.49-.09-.99-.18-1.48-.23v-.05s-.24.01-.24.01c-.17.02-.33.05-.5.08l-1.36.18h-.04c-.71-.01-1.43-.06-2.14-.1-.98-.06-1.99-.13-3-.1-1.32.03-2.66.11-3.96.19-1.59.09-3.23.19-4.83.19-1.35,0-2.71-.08-4.04-.16-1.53-.1-3.11-.19-4.68-.16-3.24.07-6.43.25-9.81.44-1.43.08-2.88.16-4.35.23l-.69.03v.69c0,1.3-.08,2.63-.15,3.92-.17,3-.34,6.1.32,9.44Z"/>
    <path class="cls-1" d="m216.88,185.31c1.46-.07,2.37.14,2.86.66.48.51.65,1.42.51,2.77-.33,3.18-.38,6.42-.44,9.56-.04,1.66-.08,3.32-.09,4.97-4.96.21-9.94.49-14.94.49s-10.16-.06-15.24-.12l-4.68-.05c-3.67-.04-8.01-.08-12.42-.06-1.57,0-3.15.09-4.68.18-1.26.07-2.57.14-3.84.17-1.05.02-2.14-.02-3.18-.07-.99-.04-2.01-.08-3.02-.07-5.27.05-10.63.14-15.82.23l-2.94.05c-1.41.02-2.81.05-4.22.08-2.4.05-4.81.1-7.21.12-.53,0-.85-.06-.98-.2-.14-.14-.19-.49-.16-.98.2-2.83.21-5.72.23-8.51,0-.8,0-1.61.02-2.41.02-1.88.06-3.76.1-5.65.1-4.56.2-9.27,0-13.91-.25-5.54-.24-11.18-.23-16.63,0-2.6,0-5.21-.02-7.81-.03-3.62.01-7.3.06-10.86.03-2.73.06-5.54.06-8.32s-.14-5.31-.27-7.89l-.03-.57c-.06-1.12.32-1.75,1.46-2.42,1.1-.64,2.25-.78,3.46-.78.46,0,.93.02,1.41.04.49.02.98.05,1.46.04,5.4,0,10.88.1,16.19.19,2.94.05,5.88.11,8.82.14,1.15.01,2.3.05,3.45.08,3.34.1,6.67.03,10.01.01,2.63-.01,5.42-.54,8.14-.54,2.85,0,5.69.09,8.54.19,3.02.1,6.13.21,9.21.19,5.79-.03,11.66-.04,17.67-.04h.35c.89,0,1.72,0,2.51.14.38.07,1.26.34,1.26,1.37,0,4.93-.03,10.03-.11,15.6,0,.12-.14.38-.28.63-.04.08-.09.16-.13.25-1.53.05-3.07.11-4.61.17-3.8.15-7.73.3-11.59.37-2.68.05-5.55.07-9.24.07-.21,0-.42,0-.64,0-.85,0-1.7.07-2.52.13-.65.05-1.32.1-1.97.12-.81.02-1.55-.15-2.34-.32-.66-.15-1.34-.3-2.08-.35-.92-.06-1.87,0-2.8.06-.75.04-1.53.09-2.26.07l-1.13-.03c-2-.05-4.06-.1-6.1-.11-5.88-.05-11.15-.04-16.09,0-2.79.03-5.55.11-8.48.2-1.32.04-2.66.08-4.04.12l-.57.02-.12.56c-.86,3.93-.77,8.06-.68,12.05l.04,1.86.73-.02c.42,0,.84-.02,1.26-.03l-.13.05,1.39.09,1.09-.2c.6-.02,1.2-.03,1.81-.05,4.12-.11,8.01-.23,11.99-.21,3.55.01,7.16.13,10.66.23,2.66.08,5.42.17,8.13.21,2.37.04,4.77-.01,7.09-.06,1.24-.03,2.48-.05,3.71-.06,1.44-.02,2.48.06,2.9.47.41.41.5,1.43.5,2.94v.75c0,1.73,0,3.53.17,5.29.2,1.99-.43,3.83-1.09,5.79-.28.82-.57,1.67-.81,2.56-.99.08-1.99.17-2.98.27-2.61.24-5.3.49-7.95.55-2.44.05-4.93-.04-7.35-.13-1.68-.06-3.42-.13-5.13-.14-1.09-.01-2.17.08-3.22.16-.88.07-1.79.14-2.68.16-.81.01-1.57-.08-2.4-.18-1.02-.13-2.08-.26-3.19-.16-2.34.19-4.71.1-7.01,0-1.34-.05-2.72-.11-4.09-.11-.69,0-1.33.2-2.01.42-.3.1-.62.19-.96.28l-.55.14v15.36l.65.08c.35.04.68.09.99.13.64.09,1.23.17,1.84.19,1.45.05,2.93.15,4.36.25,3.49.23,7.1.48,10.61.08,1.89-.21,3.85-.16,5.74-.11,1.37.04,2.79.08,4.19.02.3-.01.6-.03.9-.05h.58s.62-.02.62-.02l.49-.1c.59-.05,1.17-.1,1.75-.14,1.89-.16,3.85-.33,5.81-.34,4.55-.03,9.19.16,13.67.34,4.16.17,8.45.35,12.67.35,2.57.05,5.17-.09,7.68-.21.65-.03,1.31-.07,1.96-.1h0Z"/>
    <path class="cls-1" d="m288.25,203.85c-.95-.09-1.93-.17-2.91-.22l-.43-.02h-1.04l-.55-.03c-1.13,0-2.27,0-3.37.02-1.37.02-2.78.03-4.17,0-9.35-.17-17.64,0-25.34.52-2.52.17-5.14.02-7.66-.12l-.81-.04c-.55-.03-1.15-.3-1.78-.59-.17-.08-.33-.15-.49-.22-1.12-.48-1.5-1.21-1.36-2.57.23-2.17.24-4.38.25-6.52l.02-3.49c.03-5.19.07-10.56,0-15.85-.03-2.44-.13-4.91-.23-7.31-.11-2.66-.22-5.42-.24-8.12-.01-2.12.14-4.29.28-6.4.08-1.14.15-2.28.21-3.41.04-.82.03-1.64.02-2.44l-.09-24.04c0-1.28,0-2.56,0-3.91v-1.4c.15-.04.3-.08.45-.11.63-.16,1.23-.32,1.77-.32,3.43,0,7.15.05,12.01.18,1.52.04,1.74.16,1.74,1.85,0,3.61-.04,7.22-.07,10.83-.03,2.98-.06,5.96-.07,8.94,0,2.51,0,5.02.02,7.53.02,2.79.03,5.58.01,8.38,0,.86-.08,1.71-.17,2.61-.08.82-.16,1.66-.17,2.51l-.02,1.17c-.07,3.38-.14,6.87-.03,10.31.1,3.18.33,6.39.56,9.5.06.84.13,1.68.19,2.53.03.47.29.86.43,1.06l.24.46h3.3c2.21,0,4.35-.02,6.49.01.77,0,1.57.06,2.33.1.86.05,1.75.11,2.64.11,1.53,0,3.07-.02,4.61-.04,1.99-.03,4.05-.06,6.07-.03l2.32.04c3.7.06,7.53.12,11.31.1l5.99-.03c2.49-.01,5.02-.07,7.46-.13,3.87-.09,7.86-.19,11.77-.1,2.87.07,5.69.29,8.67.52,1.13.09,2.26.18,3.41.26.52,2.44.51,4.96.49,7.41l-.02,3.34c0,1.46-.02,2.93-.02,4.39,0,2.18-.39,2.61-2.45,2.7-1.05.05-2.13.02-3.18,0-.82-.02-1.67-.04-2.51-.03-3.77.06-7.55.13-11.32.2-4.38.08-8.75.16-13.13.23-3.08.05-5.77.03-8.22-.06-1.07-.04-2.16-.14-3.22-.23h0Z"/>
    <path class="cls-1" d="m347.64,203.55c-.12-2.88.04-5.79.07-8.66.05-4.22.1-8.59.1-12.89,0-1.83-.1-3.69-.2-5.48-.08-1.58-.17-3.22-.19-4.82-.02-1.45.1-2.94.21-4.39.05-.67.1-1.34.14-2.02l.02-.25c.02-.23.03-.47.03-.7-.04-1.26-.08-2.52-.13-3.79-.09-2.63-.19-5.35-.21-8.02-.02-1.96.04-3.96.1-5.89.04-1.49.09-2.98.1-4.47.02-1.74,0-3.47-.02-5.21-.02-1.55-.03-3.11-.02-4.66,0-1.7.05-3.41.09-5.11.02-1.08.05-2.15.07-3.23.01-.62,0-1.23,0-1.85,0-1.01,0-2.07.05-3.08.03-.55.14-.93,1.33-.97,1.29-.04,2.6-.14,3.86-.24,1.59-.12,3.24-.25,4.84-.25h.2c1.57.01,3.23.52,4.64,1.02.23.08.66.66.89,1.36.25.74.25,1.64.25,2.44,0,6.09,0,12.19-.02,18.28-.01,9.61-.02,19.23,0,28.84,0,3.55.07,7.16.12,10.65,0,7.84.11,15.69-.17,23.53,0,.07,0,.14-.06.19s-.13.05-.19.05c-2.32.03-4.65.05-6.97.14-2.96.11-5.94.26-8.89.02l-.02-.52h0Z"/>
    <path class="cls-1" d="m476.61,185.31c1.46-.07,2.37.14,2.86.66.48.51.65,1.42.51,2.77-.33,3.18-.38,6.42-.44,9.56-.04,1.66-.08,3.32-.09,4.97-4.96.21-9.94.49-14.94.49s-10.16-.06-15.24-.12l-4.68-.05c-3.67-.04-8.01-.08-12.42-.06-1.57,0-3.15.09-4.68.18-1.26.07-2.57.14-3.84.17-1.05.02-2.14-.02-3.18-.07-.99-.04-2.01-.08-3.02-.07-5.27.05-10.63.14-15.82.23l-2.94.05c-1.41.02-2.81.05-4.22.08-2.4.05-4.81.1-7.21.12-.53,0-.85-.06-.98-.2-.14-.14-.19-.49-.16-.98.2-2.83.21-5.72.23-8.51,0-.8,0-1.61.02-2.41.02-1.88.06-3.76.1-5.65.1-4.56.2-9.27,0-13.91-.25-5.54-.24-11.18-.23-16.63,0-2.6,0-5.21-.02-7.81-.03-3.62.01-7.3.06-10.86.03-2.73.06-5.54.06-8.32s-.14-5.31-.27-7.89l-.03-.57c-.06-1.12.32-1.75,1.46-2.42,1.1-.64,2.25-.78,3.46-.78.46,0,.93.02,1.41.04.49.02.98.05,1.46.04,5.4,0,10.88.1,16.19.19,2.94.05,5.88.11,8.82.14,1.15.01,2.3.05,3.45.08,3.34.1,6.67.03,10.01.01,2.63-.01,5.42-.54,8.14-.54,2.85,0,5.69.09,8.54.19,3.02.1,6.13.21,9.21.19,5.79-.03,11.66-.04,17.67-.04h.35c.89,0,1.72,0,2.51.14.38.07,1.26.34,1.26,1.37,0,4.93-.03,10.03-.11,15.6,0,.12-.14.38-.28.63-.04.08-.09.16-.13.25-1.53.05-3.07.11-4.61.17-3.8.15-7.73.3-11.59.37-2.68.05-5.55.07-9.24.07-.21,0-.42,0-.64,0-.85,0-1.7.07-2.52.13-.65.05-1.32.1-1.97.12-.81.02-1.55-.15-2.34-.32-.66-.15-1.34-.3-2.08-.35-.92-.06-1.87,0-2.8.06-.75.04-1.53.09-2.26.07l-1.13-.03c-2-.05-4.06-.1-6.1-.11-5.88-.05-11.15-.04-16.09,0-2.79.03-5.55.11-8.48.2-1.32.04-2.66.08-4.04.12l-.57.02-.12.56c-.86,3.93-.77,8.06-.68,12.05l.04,1.86.73-.02c.42,0,.84-.02,1.26-.03l-.13.05,1.39.09,1.09-.2c.6-.02,1.2-.03,1.81-.05,4.12-.11,8.01-.23,11.99-.21,3.55.01,7.16.13,10.66.23,2.66.08,5.42.17,8.13.21,2.37.04,4.77-.01,7.09-.06,1.24-.03,2.48-.05,3.71-.06,1.44-.02,2.48.06,2.9.47.41.41.5,1.43.5,2.94v.75c0,1.73,0,3.53.17,5.29.2,1.99-.43,3.83-1.09,5.79-.28.82-.57,1.67-.81,2.56-.99.08-1.99.17-2.98.27-2.61.24-5.3.49-7.95.55-2.44.05-4.93-.04-7.35-.13-1.68-.06-3.42-.13-5.13-.14-1.09-.01-2.17.08-3.22.16-.88.07-1.79.14-2.68.16-.81.01-1.57-.08-2.4-.18-1.02-.13-2.08-.26-3.19-.16-2.34.19-4.71.1-7.01,0-1.34-.05-2.72-.11-4.09-.11-.69,0-1.33.2-2.01.42-.3.1-.62.19-.96.28l-.55.14v15.36l.65.08c.35.04.68.09.99.13.64.09,1.23.17,1.84.19,1.45.05,2.93.15,4.36.25,3.49.23,7.1.48,10.61.08,1.89-.21,3.85-.16,5.74-.11,1.37.04,2.79.08,4.19.02.3-.01.6-.03.9-.05h.58s.62-.02.62-.02l.49-.1c.59-.05,1.17-.1,1.75-.14,1.89-.16,3.85-.33,5.81-.34,4.55-.03,9.19.16,13.67.34,4.16.17,8.45.35,12.67.35,2.57.05,5.17-.09,7.68-.21.65-.03,1.31-.07,1.96-.1h0Z"/>
    <path class="cls-1" d="m568.13,135.81c-.62-.04-1.24-.08-1.85-.11-1.33-.08-2.64.05-3.9.17-1.29.13-2.5.24-3.73.16-.26-.02-.53-.05-.79-.08-.37-.04-.74-.08-1.12-.1h0c-4.17-.14-8.59-.11-12.41-.07-3.58.04-7.22.13-10.73.23-2.58.07-5.15.14-7.73.19-2.21.04-4.43.03-6.77.02-1.1,0-2.23,0-3.39,0h-.59l-.12.58c-.84,4.03-.73,8.34-.63,12.51l.03,1.3.73-.02c.68-.02,1.36-.03,2.03-.05h.47s.5.05.5.05l.53-.09c.64-.02,1.28-.04,1.92-.05,4.12-.12,8.01-.23,11.98-.21,3.55.01,7.16.13,10.66.24,2.66.08,5.42.17,8.13.21,2.36.04,4.75-.01,7.06-.06,1.25-.03,2.5-.05,3.74-.07,1.44-.01,2.48.06,2.89.47.42.41.5,1.43.5,2.95,0,.83.03,1.66.07,2.46.05,1.15.09,2.33.04,3.48-.09,1.93-.25,4.48-.71,6.97-.24,1.33-.91,1.92-2.15,1.92-1.78,0-3.59.1-5.33.2-1.59.09-3.24.18-4.86.19-3.09.03-6.22-.04-9.26-.12l-2.62-.06c-2.11-.04-4.21-.1-6.31-.15-3.19-.08-6.39-.16-9.58-.21-2.31-.04-4.74,0-7.41.12-2.33.1-3.47,1.41-3.39,3.88.05,1.57.11,3.14.18,4.71.1,2.44.2,4.96.24,7.44.08,5.81.05,11.87.03,16.74,0,1.55-.8,2.35-2.39,2.4-4.2.12-8.39.2-12.33.26-.44,0-1.1.02-1.21-.03-.1-.16-.1-.94-.1-1.4-.02-2.4,0-4.84.03-7.2l.02-2.76c.02-1.92.03-3.84.05-5.76.05-4.62.1-9.4.06-14.1,0-1.28-.15-2.57-.29-3.81-.13-1.19-.27-2.42-.28-3.61-.01-1.44.07-2.92.15-4.35.11-2.02.23-4.11.09-6.16-.21-3.05-.08-6.15.06-9.16.11-2.56.23-5.2.14-7.82-.13-3.39-.09-6.86-.05-10.21.02-1.72.04-3.43.03-5.15,0-.64-.09-1.28-.17-1.89l-.04-.3c-.14-1.07.23-1.71,1.37-2.39,1.14-.67,2.33-.83,3.58-.83.55,0,1.12.03,1.69.06.55.03,1.09.06,1.63.06,3.94.03,7.94.13,11.82.23,3.35.08,6.81.17,10.21.21,1,.01,1.99.03,2.99.05,3.76.07,7.64.14,11.46-.16l1.18.08,1.13-.29c5.29-.42,10.65-.24,15.84-.08,3.08.1,6.27.2,9.42.18,5.03-.03,10.14-.03,15.08-.03h2.7c.86,0,1.67,0,2.45.12.63.1,1.37.46,1.37,1.59,0,5.16-.02,10.31-.09,15.32,0,.12-.14.39-.28.65-.06.1-.12.21-.18.33-1.5.05-3,.11-4.52.16-3.88.15-7.89.3-11.86.32-2.36.01-4.76-.14-7.09-.28h0Z"/>
    <path class="cls-1" d="m643.24,142.51c0,8.32-6.74,15.06-15.06,15.06s-15.06-6.74-15.06-15.06,15.06-24.82,15.06-24.82c0,0,15.06,16.5,15.06,24.82Z"/>
    <path class="cls-1" d="m690.73,142.51c0,8.32-6.74,15.06-15.06,15.06s-15.06-6.74-15.06-15.06,15.06-24.82,15.06-24.82c0,0,15.06,16.5,15.06,24.82Z"/>
    <path class="cls-1" d="m666.45,182.04c0,8.32-6.74,15.06-15.06,15.06s-15.06-6.74-15.06-15.06,15.06-24.82,15.06-24.82c0,0,15.06,16.5,15.06,24.82Z"/>
    <g>
      <g>
        <path class="cls-1" d="m5.5,285.67c-.45-6.67.02-12.97-.17-19.25-.21-7.17-.12-14.32-.07-21.48.02-2.76.04-2.86,2.7-2.89,4.09-.05,8.19-.17,12.27.33,2.18.27,4.4.31,6.59.47,8.61.63,13.52,5.13,15.09,13.52,1.02,5.43.37,10.75-2.22,15.59-2.3,4.28-5.74,7.48-10.94,7.98-4.87.47-9.77.35-14.66.3-2.25-.02-2.39.11-2.37,2.4.07,6.85.26,13.69.07,20.54-.02.63,0,1.26-.06,1.89-.16,1.65-.52,1.81-3.63,1.76-2.32-.04-2.71-.28-2.77-1.94-.15-4.33-.19-8.66.04-12.98.12-2.2-.26-4.41.12-6.22h0Zm6.2-21.47c0,2.2.05,4.41-.02,6.6-.04,1.29.5,1.8,1.74,2.01,1.58.26,3.16.21,4.72.2,3.07-.01,6.14.21,9.2-.38,2.82-.55,4.86-1.93,6.2-4.56,1.75-3.41,1.3-7.04,1.45-10.62.01-.29-.22-.58-.31-.88-1.47-4.46-5.04-6.12-9.26-6.41-3.98-.28-7.99.38-12,.22-1.34-.06-1.88.57-1.83,2.04.13,3.92.04,7.85.04,11.77h.06Z"/>
        <path class="cls-1" d="m9.05,308.3c-.31,0-.64,0-.97-.01-2.32-.04-4.1-.31-4.21-3.36-.18-5.25-.16-9.29.05-13.12.05-.82.01-1.68-.02-2.51-.04-1.24-.09-2.53.12-3.72-.25-3.9-.2-7.68-.15-11.34.04-2.68.07-5.2,0-7.77-.18-6.21-.14-12.51-.09-18.6l.02-2.93c.02-3.38.54-4.31,4.15-4.35l1.19-.02c3.68-.05,7.49-.11,11.28.36,1.38.17,2.83.25,4.22.32.77.04,1.53.08,2.3.14,9.2.67,14.73,5.62,16.43,14.72,1.12,5.97.32,11.54-2.37,16.55-2.85,5.31-6.92,8.25-12.1,8.75-4.41.43-8.86.38-13.17.33l-1.64-.02c-.19,0-.58,0-.88,0-.02.3-.01.71,0,.9.02,1.67.04,3.33.06,4.99.07,5.11.15,10.39,0,15.6v.57c-.01.48-.02.95-.07,1.43-.27,2.79-1.87,3.1-4.15,3.1Zm-2.21-3.03c.2.04.58.07,1.29.08.47,0,1.6.03,2.09-.05.01-.08.03-.2.05-.38.04-.39.04-.77.04-1.16v-.62c.15-5.15.07-10.4,0-15.48-.02-1.67-.05-3.34-.06-5-.01-1.2-.02-2.33.76-3.12.78-.79,1.9-.77,3.09-.76l1.65.02c4.23.05,8.6.1,12.85-.31,4.2-.41,7.4-2.77,9.79-7.22,2.37-4.41,3.06-9.33,2.07-14.62-1.47-7.83-5.83-11.75-13.75-12.32-.75-.05-1.49-.09-2.24-.13-1.45-.08-2.94-.16-4.42-.34-3.59-.44-7.29-.39-10.88-.34l-1.2.02c-.33,0-.87.01-1.21.04-.03.34-.03.91-.04,1.39l-.02,2.94c-.04,6.06-.09,12.33.09,18.49.08,2.63.04,5.31,0,7.9-.05,3.66-.1,7.44.16,11.29v.2s-.03.2-.03.2c-.19.91-.15,2.03-.1,3.23.03.9.07,1.82.01,2.78-.21,3.73-.22,7.69-.04,12.85,0,.21.02.35.03.44Zm15.19-30.75c-.61,0-1.22,0-1.82-.02-.69,0-1.37-.02-2.06-.02h-.6c-1.41.01-2.87.03-4.37-.22-2.03-.34-3.03-1.52-2.97-3.51.05-1.53.04-3.07.03-4.61l-.07-1.95c0-1.12,0-2.24.01-3.35.02-2.75.03-5.59-.06-8.37-.04-1.22.25-2.12.88-2.74.59-.59,1.43-.86,2.48-.82,1.8.07,3.67-.03,5.48-.13,2.14-.12,4.35-.24,6.56-.09,5.5.39,9.06,2.88,10.55,7.42l.06.14c.14.28.34.71.32,1.27-.03.76-.04,1.53-.04,2.29-.02,2.93-.04,5.96-1.57,8.94-1.5,2.93-3.87,4.67-7.23,5.33-1.89.37-3.76.44-5.6.44Zm-3.6-2.97c.61,0,1.21,0,1.82.02,2.36.03,4.6.06,6.81-.37,2.48-.48,4.08-1.65,5.17-3.78,1.21-2.36,1.23-4.91,1.25-7.62,0-.74.01-1.47.04-2.2l-.02-.05c-.08-.17-.16-.33-.21-.5-1.12-3.38-3.65-5.1-7.97-5.41-2.03-.14-4.05-.03-6.19.09-1.88.1-3.81.21-5.76.13-.12,0-.21,0-.27,0-.02.09-.04.25-.03.52.09,2.84.07,5.71.06,8.48,0,.65,0,1.29-.01,1.94l.07,3.33c.01,1.57.02,3.14-.03,4.71,0,.25.02.37.03.4.02-.02.15.06.48.11,1.25.21,2.52.2,3.86.19h.61c.1,0,.19,0,.29,0Z"/>
      </g>
      <g>
        <path class="cls-1" d="m74.6,286.03c0,4.8-.61,9.57-.56,14.37.01,1.02.02,2.04.02,3.06,0,1.94-.94,2.84-2.86,2.89-.63.01-1.26,0-1.89,0-2.56.01-2.89-.4-2.91-3.04-.04-8.88.22-17.77.12-26.65-.07-6.44.28-12.88.26-19.31,0-4.02.24-8.01.73-11.99.27-2.21.55-2.68,2.75-2.7,3.21-.02,6.39-.38,9.63-.31,4.56.1,9.13.11,13.66.53,3.64.34,6.83,1.9,9.79,4.24,5,3.96,5.41,9.28,5.06,14.86-.15,2.48-.66,4.94-1.36,7.39-1.08,3.81-3.68,5.79-7,7.09-4.69,1.83-4.83,1.78-2.95,6.43,1.91,4.72,4.12,9.33,6.08,14.03.9,2.17,1.49,4.47,2.43,6.64.43,1,.12,1.99-.93,2.66-.8.51-1.58,1-2.54,1.21-2.1.47-3.04.19-3.74-1.79-1.39-3.92-3.56-7.5-4.67-11.54-.43-1.56-1.22-3.06-1.9-4.54-1.35-2.93-2.46-5.95-3.78-8.88-.46-1.02-.86-1.72-2.17-1.72-3.32,0-6.62.08-9.9.59-.95.15-1.39.57-1.37,1.54.03,1.65,0,3.3,0,4.96h0Zm12.32-14.47c2.28.29,5.16-.08,7.98-.94,2.07-.63,4.06-1.53,5.11-3.54,1.89-3.63,2.38-7.46,1.1-11.42-.74-2.29-2.35-3.5-4.69-4.14-2.37-.64-4.76-.97-7.18-1.31-4.17-.57-8.33-.27-12.5-.22-1.76.02-1.99.35-1.89,2.16.2,3.62.1,7.23,0,10.84-.05,2.26-.47,4.53,0,6.81.36,1.75.62,1.98,2.45,1.94,2.98-.06,5.95-.45,9.61-.19h0Z"/>
        <path class="cls-1" d="m100.66,309.1c-1.5,0-2.84-.65-3.66-2.97-.57-1.61-1.27-3.14-2.01-4.77-1-2.19-2.03-4.45-2.7-6.88-.31-1.13-.84-2.24-1.4-3.43l-.42-.89c-.75-1.62-1.43-3.27-2.08-4.87-.55-1.35-1.11-2.7-1.7-4.03-.38-.85-.41-.86-.82-.85-2.93,0-6.34.05-9.68.57-.05,0-.09.02-.13.02,0,.01,0,.03,0,.04.02,1.18.02,2.36.01,3.54v1.05s0,.39,0,.39c0,2.37-.14,4.75-.29,7.05-.15,2.4-.3,4.88-.28,7.3.01,1.02.02,2.05.02,3.07,0,2.71-1.56,4.3-4.3,4.36-.41,0-.83,0-1.25,0h-.68s-.04,0-.07,0c-3.29,0-4.3-1.06-4.31-4.5-.02-4.01.03-8.02.07-12.03.05-4.79.1-9.74.05-14.61-.04-3.48.05-7.01.13-10.41.07-2.92.14-5.95.14-8.91,0-4.04.24-8.14.74-12.17.33-2.68,1.05-3.96,4.2-3.99,1.38-.01,2.76-.08,4.13-.16,1.8-.1,3.66-.2,5.54-.15l2.55.05c3.67.07,7.47.14,11.21.48,3.67.34,7.13,1.83,10.57,4.55,5.54,4.38,5.97,10.33,5.62,16.1-.14,2.33-.61,4.85-1.41,7.7-1.42,5.02-5.18,7-7.88,8.06l-.27.11c-1.31.51-2.67,1.05-2.89,1.34-.06.35.57,1.92,1.03,3.06,1.03,2.55,2.17,5.11,3.27,7.59.95,2.13,1.9,4.27,2.8,6.42.45,1.09.83,2.2,1.19,3.27.39,1.17.77,2.27,1.23,3.35.73,1.69.14,3.45-1.5,4.48-.84.53-1.79,1.13-3,1.4-.6.13-1.2.23-1.78.23Zm-14.79-31.62c2.35,0,3.07,1.62,3.51,2.59.61,1.36,1.17,2.73,1.74,4.11.65,1.57,1.31,3.2,2.03,4.76l.41.86c.59,1.24,1.2,2.53,1.58,3.9.61,2.21,1.55,4.26,2.54,6.44.73,1.61,1.49,3.27,2.1,5,.38,1.07.43,1.2,2.03.85.72-.16,1.34-.56,2.07-1.02.57-.36.45-.64.37-.83-.51-1.19-.92-2.4-1.32-3.57-.36-1.08-.7-2.09-1.12-3.08-.89-2.13-1.83-4.25-2.77-6.36-1.11-2.5-2.26-5.09-3.31-7.68-1-2.47-1.6-3.96-1-5.35.59-1.36,1.98-1.91,4.51-2.89l.27-.11c3.41-1.34,5.3-3.22,6.12-6.12.75-2.64,1.18-4.96,1.31-7.08.37-5.92-.26-10.26-4.51-13.62-2.98-2.36-5.93-3.65-9.01-3.93-3.63-.33-7.38-.4-11-.47l-2.56-.05c-1.76-.04-3.57.06-5.32.15-1.42.08-2.84.15-4.27.16-.85,0-1.06.09-1.09.11-.02.08-.12.53-.21,1.3-.48,3.91-.72,7.89-.72,11.81,0,3-.07,6.04-.14,8.99-.08,3.38-.16,6.88-.13,10.31.05,4.9,0,9.87-.05,14.67-.04,4-.09,7.99-.07,11.99,0,1.14.09,1.46.14,1.56-.03-.06.24.02,1.21.02h.79c.39,0,.77,0,1.16,0,1.15-.03,1.43-.3,1.43-1.41,0-1.02,0-2.03-.02-3.05-.03-2.53.13-5.06.28-7.51.12-2.03.25-4.11.28-6.17v-2.16c0-1.16.01-2.32,0-3.48-.02-.97.3-2.66,2.61-3.02,3.55-.55,7.09-.6,10.13-.6h0Zm-8.77-4.25c-2.35,0-3.19-.73-3.68-3.12-.37-1.82-.25-3.56-.13-5.24.04-.63.09-1.27.11-1.9l.02-.68c.08-3.3.16-6.71-.02-10.04-.06-1.07-.05-2.09.66-2.86.71-.76,1.75-.84,2.68-.85.91-.01,1.81-.03,2.72-.06,3.26-.08,6.62-.17,10,.29,2.4.33,4.89.67,7.36,1.34,2.99.81,4.86,2.48,5.71,5.1,1.36,4.2.95,8.42-1.2,12.55-1.34,2.58-3.91,3.64-5.99,4.27-3.13.95-6.18,1.3-8.59.99h-.02c-2.32-.16-4.38-.04-6.37.07-1.02.06-2.02.11-3.01.13-.08,0-.16,0-.24,0Zm-.61-2.96c.13.01.37.03.8.02.96-.02,1.92-.07,2.9-.13,2.11-.12,4.29-.24,6.84-.06l.93.08c1.87.09,4.19-.25,6.52-.96,2.33-.71,3.56-1.52,4.23-2.81,1.77-3.41,2.11-6.87,1.01-10.29-.54-1.67-1.64-2.62-3.68-3.17-2.29-.62-4.68-.95-6.99-1.27-3.14-.43-6.24-.35-9.52-.27-.92.02-1.84.05-2.76.06-.2,0-.34,0-.46.02,0,.13,0,.32.02.59.19,3.45.11,6.92.03,10.28l-.02.68c-.02.68-.06,1.36-.11,2.03-.11,1.55-.21,3.02.08,4.44.08.4.14.63.18.75Z"/>
      </g>
      <g>
        <path class="cls-1" d="m132.94,257.36c-.13,4.16-.48,8.32-.47,12.46,0,2.83.12,5.68.08,8.51-.08,5.37.36,10.74.1,16.1-.16,3.3-.03,6.61-.29,9.91-.11,1.42-.71,2.13-2.13,2.23-1.26.09-2.52.18-3.78.25-1.64.08-2.28-.43-2.54-2.04-.06-.38-.04-.77-.04-1.15,0-7.53.15-15.06-.04-22.58-.31-12.4-.14-24.79-.16-37.19,0-2.58.04-2.59,2.62-2.62,1.34-.01,2.69-.01,4.03.03,1.92.06,2.56.61,2.65,2.48.07,1.53-.03,3.07-.03,4.61,0,3,0,6,0,9h0Z"/>
        <path class="cls-1" d="m126.16,308.3c-2.16,0-3.34-1.05-3.69-3.28-.07-.42-.06-.81-.06-1.16v-.23c0-2.33.02-4.66.03-7,.03-5.1.07-10.38-.07-15.55-.22-8.84-.2-17.82-.17-26.5.01-3.57.02-7.15.01-10.72,0-3.37.68-4.06,4.07-4.09,1.36-.01,2.73-.01,4.08.03,2.7.08,3.95,1.27,4.08,3.88.05,1.03.02,2.06,0,3.05-.01.54-.03,1.09-.03,1.63,0,2.08,0,4.16,0,6.24v2.78s0,.02,0,.02c-.05,1.6-.13,3.2-.21,4.8-.13,2.5-.26,5.09-.26,7.62,0,1.17.02,2.34.04,3.52.03,1.67.06,3.35.03,5.01-.03,2.27.03,4.59.09,6.84.08,3.04.16,6.19.02,9.31-.07,1.38-.08,2.77-.09,4.15-.02,1.9-.04,3.86-.19,5.81-.22,2.78-2.02,3.48-3.5,3.58l-.88.06c-.97.07-1.95.14-2.92.19-.13,0-.25.01-.37.01Zm-.57-3.01s.16.09.79.06c.96-.05,1.91-.12,2.87-.18l.89-.06c.57-.04.7-.05.77-.88.15-1.85.17-3.76.19-5.61.02-1.42.03-2.84.1-4.26.14-3.01.06-6.1-.02-9.09-.06-2.27-.12-4.63-.09-6.96.02-1.64,0-3.28-.03-4.92-.02-1.19-.04-2.38-.04-3.57,0-2.6.13-5.23.26-7.77.08-1.57.16-3.14.21-4.71v-2.73c0-2.08,0-4.16,0-6.25,0-.57.02-1.14.03-1.7.03-.98.05-1.91,0-2.83-.04-.75-.17-.91-.17-.91,0,0-.18-.14-1.06-.17-1.32-.04-2.65-.04-3.97-.03-.38,0-.83,0-1.14.03-.02.32-.02.78-.02,1.12,0,3.58,0,7.16-.01,10.73-.02,8.66-.05,17.62.17,26.42.13,5.22.1,10.52.07,15.64-.01,2.33-.03,4.65-.03,6.98v.26c0,.22-.01.44.02.65.1.6.22.74.22.74h0Z"/>
      </g>
      <g>
        <path class="cls-1" d="m162.83,275.37c0-4.96-.03-9.91.01-14.87.04-4.8.06-9.61.08-14.41.02-4.4.43-3.83,4.11-3.61,1.65.1,2.9.75,3.92,2.18,4.14,5.85,8.63,11.48,11.99,17.82,3.32,6.24,6.59,12.53,9.42,19.02.79,1.81,1.84,3.48,2.89,5.15.2.32.4.75.9.56.36-.14.27-.51.27-.81-.05-6.37.51-12.74.21-19.12-.32-6.69.03-13.38-.02-20.07,0-1.1-.09-2.2-.09-3.31,0-1.57.35-2.04,1.95-1.96,4.92.26,5.29-1.28,5.1,4.74-.08,2.51.33,5.04.23,7.55-.22,5.48.24,10.96.09,16.45-.13,5.01-.11,10.06-.01,15.08.1,4.87.03,9.75.04,14.62,0,.31,0,.63.03.94.3,3.02.28,3.05-2.68,3.12-5.2.11-5.07.06-7.26-4.8-1.64-3.65-3.6-7.16-5.52-10.67-2.15-3.94-4.04-8.01-6.15-11.96-2.7-5.06-5.25-10.22-8.68-14.87-.84-1.13-1.41-2.45-2.13-3.67-.2-.33-.45-.77-.88-.65-.38.11-.54.57-.59.96-.06.46-.12.95-.05,1.41.48,3.36.37,6.77.28,10.12-.11,3.85.03,7.69-.07,11.53-.18,7.07-.01,14.15.01,21.23,0,.08,0,.16,0,.24.19,3.49.19,3.55-3.44,3.49-4.39-.06-4.5.94-4.15-4.52.26-4.09.21-8.18.17-12.28-.04-4.88-.01-9.75,0-14.63h0Z"/>
        <path class="cls-1" d="m164.32,308.3c-1.01,0-1.83-.11-2.47-.78-.92-.96-.83-2.33-.64-5.34.24-3.78.21-7.67.17-11.42v-.74c-.04-3.47-.03-6.94-.02-10.41v-3.57s0-5.39,0-5.39c0-3.39-.01-6.77.02-10.16.04-4.8.06-9.6.08-14.4,0-2.23.08-3.64,1.04-4.53.9-.83,2.02-.74,3.56-.62.32.03.67.05,1.06.08,2.14.13,3.79,1.05,5.03,2.8.97,1.37,1.96,2.72,2.94,4.08,3.21,4.4,6.53,8.96,9.15,13.9,3.2,6.03,6.57,12.47,9.47,19.13.37.84.79,1.65,1.25,2.45.03-1.66.08-3.31.13-4.93.12-3.64.24-7.41.06-11.09-.2-4.22-.14-8.5-.07-12.63.04-2.5.08-5,.06-7.49,0-.51-.02-1.02-.04-1.53-.02-.6-.04-1.19-.05-1.79,0-.93.1-1.97.86-2.7.77-.73,1.81-.77,2.64-.73.95.05,1.72.03,2.35.01,1.36-.03,2.44-.06,3.27.78.97.97.96,2.46.87,5.47-.04,1.16.04,2.32.12,3.56.08,1.3.17,2.65.11,4.01-.12,2.86-.04,5.78.03,8.61.06,2.55.13,5.19.06,7.81-.12,4.51-.12,9.43-.01,15.02.07,3.37.06,6.79.05,10.1,0,1.52,0,3.03,0,4.55,0,.27,0,.54.02.81.18,1.81.29,2.91-.49,3.79-.78.88-1.91.9-3.63.94-5.63.12-6.18-.22-8.45-5.27l-.18-.39c-1.45-3.23-3.2-6.42-4.88-9.51l-.58-1.07c-1.17-2.14-2.27-4.34-3.34-6.47-.92-1.84-1.85-3.68-2.82-5.5l-1.23-2.32c-2.21-4.19-4.49-8.52-7.33-12.37-.3-.4-.56-.82-.81-1.24.25,2.88.17,5.75.09,8.54-.06,2-.05,4.01-.04,5.95,0,1.87.02,3.74-.03,5.61-.12,4.97-.08,10.05-.03,14.95.02,2.08.04,4.16.05,6.23v.16c.11,2.04.18,3.27-.69,4.17-.88.92-2.15.9-4.23.87-.66-.01-1.22,0-1.69.02-.28,0-.54.02-.8.02Zm-.29-2.94c.27,0,.65,0,1-.01.51-.01,1.11-.03,1.81-.02.67,0,1.55.02,2-.03.03-.41-.01-1.2-.05-1.91,0-.09,0-.2,0-.32,0-2.07-.03-4.14-.05-6.21-.05-4.93-.09-10.03.03-15.06.05-1.84.04-3.68.03-5.53,0-1.97-.02-4,.04-6.02.1-3.29.19-6.65-.26-9.87-.09-.65-.02-1.28.05-1.81.15-1.12.74-1.92,1.64-2.18.7-.2,1.71-.13,2.56,1.31.26.45.51.9.75,1.36.42.79.82,1.54,1.3,2.19,2.98,4.03,5.31,8.46,7.57,12.75l1.22,2.31c.98,1.84,1.92,3.7,2.85,5.57,1.06,2.11,2.15,4.29,3.29,6.39l.58,1.06c1.71,3.14,3.49,6.38,4.98,9.71l.18.4c.83,1.84,1.33,2.96,1.84,3.28.51.32,1.68.31,3.87.26.47,0,1.01-.02,1.37-.05-.01-.38-.07-.95-.12-1.45-.03-.37-.04-.73-.04-1.09,0-1.52,0-3.04,0-4.56,0-3.29.02-6.69-.05-10.03-.11-5.64-.11-10.59.01-15.15.07-2.54,0-5.14-.06-7.66-.07-2.88-.15-5.85-.03-8.81.05-1.2-.03-2.42-.11-3.7-.08-1.25-.16-2.54-.12-3.84.03-.93.08-2.58-.04-3.21-.27-.02-.71,0-1.09,0-.68.02-1.52.04-2.58-.02-.17,0-.3,0-.39,0-.01.11-.02.27-.02.49,0,.56.02,1.12.04,1.68.02.54.04,1.08.04,1.62.02,2.52-.02,5.04-.06,7.56-.06,4.09-.12,8.32.07,12.45.18,3.8.06,7.63-.06,11.33-.08,2.58-.17,5.24-.15,7.85.08,1.42-.62,1.97-1.21,2.19-.6.23-1.73.39-2.63-1.08l1.16-.91-1.24.78c-1.05-1.66-2.13-3.39-2.95-5.28-2.86-6.56-6.2-12.94-9.37-18.92-2.53-4.75-5.78-9.22-8.93-13.55-1-1.37-1.99-2.73-2.97-4.11-.73-1.04-1.55-1.49-2.81-1.57-.41-.02-.78-.05-1.11-.08-.48-.04-1.01-.07-1.32-.07-.12.55-.12,1.84-.12,2.3-.02,4.8-.04,9.61-.08,14.42-.03,3.38-.02,6.75-.02,10.13v3.95s0,5.03,0,5.03c0,3.46-.02,6.92.02,10.38v.74c.04,3.81.08,7.75-.17,11.64-.08,1.18-.16,2.4-.11,2.99Z"/>
      </g>
      <g>
        <path class="cls-1" d="m248.51,256.49c.57,3.89-.33,8.1.21,12.37.41,3.21,0,6.54-.05,9.82-.02,1.63-.07,3.26-.02,4.9.1,3.4.35,6.78.04,10.21-.32,3.52.11,7.09.25,10.64.08,2.1-.1,2.34-2.29,2.39-1.19.03-2.37,0-3.56-.01-1.18-.01-1.85-.6-1.65-1.69.76-4.07.12-8.17.32-12.26.17-3.49-.06-7.01.11-10.51.29-6.02-.39-12.05.26-18.07.5-4.68-.07-9.37-.14-14.05-.03-1.71-.32-1.97-2.15-1.84-3.93.28-7.86-.37-11.8.12-2.02.25-2.66-.48-2.83-2.43-.32-3.67.41-4.47,4.27-4.3,6.85.29,13.7-.39,20.53,0,4.88.28,9.77-.44,14.63.32,2.34.36,2.75.93,2.44,3.86-.21,2-.86,2.44-3.12,2.44-4.56,0-9.12-.39-13.69-.04-1.44.11-1.77.67-1.78,1.77-.02,2.01,0,4.02,0,6.37h0Z"/>
        <path class="cls-1" d="m245.55,308.3c-.56,0-1.11,0-1.67-.01h-.79c-1.39-.02-2.15-.59-2.54-1.07-.51-.62-.71-1.47-.54-2.37.45-2.39.38-4.8.31-7.34-.04-1.54-.09-3.13-.01-4.72.08-1.7.07-3.46.05-5.17-.02-1.74-.03-3.55.06-5.34.12-2.49.07-5.05.02-7.53-.07-3.47-.14-7.05.25-10.62.33-3.09.18-6.15.02-9.38-.07-1.5-.15-2.99-.17-4.49,0-.18,0-.32-.02-.42-.13,0-.31,0-.56.03-1.85.13-3.68.07-5.46,0-2.16-.08-4.21-.15-6.26.1-.87.11-2.15.16-3.15-.65-1-.81-1.23-2.09-1.32-3.11-.18-2.05-.08-3.63.96-4.72,1.06-1.11,2.7-1.27,4.84-1.18,3.2.14,6.48.06,9.66-.02,3.56-.09,7.25-.18,10.9.03,1.91.11,3.89.06,5.8.01,2.92-.07,5.94-.15,8.97.32,3.53.55,4.01,2.27,3.68,5.46-.32,3.13-1.99,3.75-4.59,3.75-1.59,0-3.19-.05-4.78-.09-2.89-.09-5.88-.18-8.8.05-.2.02-.33.04-.41.06,0,.06-.01.14-.01.26-.01,1.41,0,2.82,0,4.35v1.89c.29,2.06.2,4.19.12,6.26-.08,1.99-.17,4.05.08,6.05.29,2.33.18,4.69.07,6.98-.05,1.01-.1,2.03-.11,3.04l-.02,1.05c-.02,1.26-.04,2.52,0,3.79.02.7.05,1.41.08,2.11.1,2.69.21,5.47-.04,8.28-.22,2.42-.07,4.85.09,7.43.06,1.01.12,2.02.16,3.02.04,1.03.09,2.2-.69,3.03-.73.78-1.76.86-3.04.89-.38,0-.76.01-1.14.01Zm-2.63-2.98c.05,0,.12.01.2.01h.79c.91.02,1.81.03,2.72.01.42,0,.69-.03.86-.04,0-.19,0-.46-.01-.81-.04-.99-.1-1.97-.16-2.96-.16-2.57-.32-5.24-.09-7.88.23-2.62.13-5.31.03-7.9-.03-.71-.06-1.42-.08-2.14-.04-1.31-.02-2.62,0-3.92l.02-1.04c.01-1.04.06-2.09.11-3.14.11-2.26.21-4.4-.05-6.47-.28-2.25-.19-4.43-.1-6.54.09-2.05.17-3.98-.1-5.8l-.02-.21v-1.79c0-1.62,0-3.11,0-4.59.01-1.98,1.07-3.07,3.14-3.23,3.07-.23,6.14-.14,9.11-.05,1.57.05,3.13.09,4.7.09,1.17,0,1.41-.14,1.44-.17,0,0,.13-.16.22-.95.16-1.53.04-1.88,0-1.94-.03-.03-.24-.16-1.2-.31-2.76-.43-5.52-.36-8.44-.29-1.97.05-4.01.1-6.04-.02-3.53-.21-7.15-.11-10.65-.03-3.22.08-6.55.16-9.86.02-2.02-.09-2.48.16-2.59.28-.12.13-.31.62-.15,2.43.08.89.24,1.07.24,1.08,0,0,.02.05.41.05.13,0,.3,0,.52-.04,2.28-.28,4.54-.2,6.72-.12,1.78.06,3.46.12,5.15,0,1.03-.07,2.09-.08,2.87.63.76.7.84,1.7.86,2.66.02,1.46.1,2.93.17,4.39.16,3.21.32,6.53-.04,9.84-.36,3.38-.3,6.87-.23,10.25.05,2.53.1,5.14-.02,7.73-.08,1.71-.07,3.47-.05,5.18.01,1.74.03,3.55-.06,5.34-.07,1.48-.03,2.94.01,4.49.07,2.57.15,5.23-.34,7.9Z"/>
      </g>
      <g>
        <path class="cls-1" d="m324.1,288.15c.47,0,.95.02,1.42,0,1.32-.05,2.01.46,2.16,1.85.25,2.26.72,4.5,2.74,5.98,1.46,1.07,3.06,2,4.81,2.43,5.63,1.39,11.35,1.94,17.07.53,2.8-.69,5.06-2.32,5.98-5.13,1.26-3.87,1.16-7.62-1.65-10.97-.7-.83-1.52-1.26-2.49-1.65-4.79-1.93-10.01-2.21-14.89-3.75-3.18-1-6.45-1.78-9.36-3.59-1.83-1.14-2.9-2.82-4.13-4.41-3.25-4.2-3.9-9.04-2.25-13.83,1.38-3.99,3.67-7.64,7.7-9.94,1.34-.77,2.65-1.64,4.07-2.26,3.68-1.59,7.54-2.08,11.53-1.67,1.49.15,2.99.27,4.48.37,5.11.31,9.33,2.38,12.13,6.61,1.31,1.97,2.56,4.13,2.46,6.68-.07,1.73-.35,2.05-2.09,2.04-1.34,0-2.68-.17-4.02-.2-1.16-.03-1.76-.54-1.77-1.7-.03-2.63-1.59-3.92-3.95-4.9-7.48-3.11-14.17-1.55-20.43,3-.37.27-.69.65-.92,1.04-2.08,3.57-2.84,7.33-.5,10.99,1.22,1.91,3.45,2.92,5.62,3.61,2.7.85,5.48,1.45,8.24,2.14,3.28.82,6.63,1.44,9.84,2.49,5.19,1.7,8.71,5,9.74,10.59.64,3.46,1.11,6.93.52,10.39-.33,1.94-1.5,3.72-2.65,5.36-1.8,2.55-4.36,4.13-7.33,5.17-3.22,1.13-6.52,2-9.9,2.05-2.79.05-5.59-.68-8.39-.93-3.44-.31-6.68-1.27-9.65-2.94-3.19-1.81-5.95-4.02-6.78-7.91-.31-1.44-.59-2.89-.85-4.34-.47-2.56.11-3.19,2.79-3.23.24,0,.47,0,.71,0h0s0,.02,0,.02Z"/>
        <path class="cls-1" d="m346.01,308.95c-1.75,0-3.48-.27-5.15-.52-1.07-.17-2.09-.32-3.11-.41-3.71-.33-7.16-1.38-10.24-3.13-3.15-1.78-6.5-4.23-7.5-8.88-.31-1.46-.59-2.92-.86-4.38-.12-.67-.21-1.36-.16-2.01h-2.54l2.82-1.13c.1-.21.22-.41.37-.6.86-1.05,2.29-1.21,3.71-1.23h.5s1.7.01,1.7.01c2.07-.03,3.34,1.08,3.57,3.16.25,2.28.7,3.9,2.15,4.96,1.56,1.15,2.97,1.87,4.29,2.19,6.31,1.56,11.51,1.72,16.36.53,2.58-.64,4.24-2.04,4.93-4.16,1.27-3.9.83-6.94-1.38-9.57-.49-.58-1.07-.89-1.91-1.23-2.59-1.04-5.29-1.57-8.15-2.14-2.18-.43-4.44-.88-6.63-1.57-.58-.18-1.16-.36-1.74-.53-2.66-.8-5.42-1.63-7.96-3.21-1.76-1.09-2.87-2.56-3.93-3.98-.19-.26-.39-.52-.59-.78-3.45-4.45-4.32-9.85-2.47-15.21,1.73-5,4.47-8.52,8.36-10.73.38-.22.75-.44,1.13-.66.98-.59,1.99-1.19,3.09-1.67,3.78-1.64,7.9-2.24,12.26-1.79,1.47.15,2.95.27,4.42.36,5.84.36,10.3,2.8,13.27,7.26,1.37,2.06,2.82,4.52,2.71,7.55-.1,2.53-1.08,3.43-3.56,3.45-.76,0-1.51-.06-2.27-.11-.59-.04-1.19-.08-1.78-.1-1.98-.05-3.18-1.22-3.21-3.15-.02-1.7-.82-2.63-3.04-3.56-6.46-2.69-12.67-1.76-19,2.83-.18.13-.38.35-.51.59-2.13,3.67-2.3,6.68-.53,9.46,1.06,1.65,3.26,2.5,4.82,3,1.91.6,3.92,1.09,5.87,1.56.76.18,1.52.37,2.28.56,1.05.26,2.1.5,3.15.75,2.24.51,4.55,1.04,6.78,1.78,6.05,1.99,9.66,5.93,10.73,11.72.6,3.26,1.19,7.05.52,10.91-.39,2.25-1.64,4.17-2.9,5.95-1.82,2.58-4.45,4.44-8.04,5.71-4,1.41-7.29,2.08-10.36,2.14-.09,0-.19,0-.28,0Zm-24.11-19.16s-.04.31.15,1.31c.26,1.43.54,2.87.85,4.3.75,3.5,3.36,5.4,6.07,6.94,2.71,1.54,5.76,2.46,9.05,2.76,1.12.1,2.22.27,3.3.44,1.72.26,3.34.51,4.94.49,2.75-.05,5.75-.67,9.44-1.97,3-1.05,5.16-2.57,6.61-4.63,1.06-1.5,2.12-3.11,2.4-4.76.58-3.38.04-6.87-.51-9.87-.87-4.72-3.73-7.81-8.75-9.46-2.11-.69-4.35-1.21-6.53-1.71-1.07-.25-2.15-.49-3.21-.76-.75-.19-1.5-.37-2.25-.55-2-.48-4.06-.98-6.07-1.61-2-.63-4.84-1.76-6.41-4.22-2.36-3.7-2.2-7.91.47-12.52.34-.59.82-1.12,1.33-1.49,7.23-5.24,14.38-6.28,21.86-3.17,2.23.93,4.8,2.48,4.85,6.23,0,.11.01.18.02.23.03,0,.14.02.32.02.64.01,1.28.06,1.92.1.69.05,1.38.1,2.08.1.27,0,.44,0,.56-.02.02-.13.03-.32.04-.61.08-2.15-1.05-4.05-2.22-5.81-2.43-3.65-6.13-5.66-11-5.95-1.52-.09-3.03-.22-4.54-.37-3.85-.4-7.49.13-10.79,1.56-.93.4-1.81.93-2.75,1.49-.39.24-.78.47-1.18.7-3.25,1.85-5.55,4.84-7.04,9.14-1.54,4.45-.84,8.75,2.02,12.44.21.27.41.54.62.81.94,1.26,1.83,2.44,3.13,3.25,2.21,1.37,4.66,2.11,7.26,2.89.59.18,1.18.36,1.77.54,2.04.64,4.11,1.05,6.32,1.49,2.87.57,5.83,1.15,8.68,2.3,1.05.42,2.14.96,3.07,2.07,2.88,3.44,3.51,7.48,1.93,12.37-1,3.07-3.49,5.24-7.02,6.11-5.34,1.32-10.98,1.15-17.77-.53-1.7-.42-3.45-1.3-5.33-2.68-2.44-1.79-3.04-4.42-3.33-7-.04-.37-.12-.49-.13-.5,0,0-.1-.04-.4-.05-.04,0-.08,0-.12,0-.35.01-.7.01-1.05,0h-1.6c-.74.04-.97.14-1.02.17h0Z"/>
      </g>
      <g>
        <path class="cls-1" d="m399.05,292.75c0,4.21-.02,8.41.02,12.62.01,1.05-.46,1.44-1.41,1.44-.08,0-.16,0-.24,0-5.94-.07-5.34.8-5.56-5-.16-4.27.08-8.55.21-12.83.19-6.17-.03-12.34.15-18.5.22-7.29.24-14.57,0-21.86-.05-1.73.45-3.46.22-5.22-.12-.94.38-1.5,1.36-1.55,1.34-.07,2.67-.19,4.01-.21,1.19-.03,1.41.81,1.39,1.77-.02,1.59-.04,3.17-.08,4.76-.14,5.14.11,10.29-.15,15.43-.09,1.88.31,3.76.11,5.68-.13,1.21.56,1.88,1.88,1.86,2.6-.04,5.19.01,7.79.02,3.46.01,6.93-.03,10.39.05,1.44.03,1.87-.53,1.98-1.94.5-6.73.2-13.46.04-20.19-.05-1.98.45-3.93.23-5.93-.1-.87.55-1.25,1.37-1.29,1.34-.08,2.67-.19,4.01-.21,1.19-.02,1.43.85,1.36,1.8-.15,1.99.02,3.97-.06,5.95-.18,4.82-.1,9.66-.12,14.47-.02,4.26.04,8.54.15,12.81.21,8.64.16,17.29-.13,25.93-.02.48-.07.95-.03,1.43.17,2.33.69,2.85-2.87,2.78-4.11-.07-4.12.64-4.25-4.15-.13-5.14.15-10.3.23-15.44.04-2.37.04-4.73.07-7.1.02-1.52-.64-1.88-2.18-1.93-5.76-.16-11.52.36-17.28.12-2.01-.08-2.23.07-2.26,2.07-.06,4.12-.24,12.36-.34,12.36h0Z"/>
        <path class="cls-1" d="m425.64,308.3c-.19,0-.39,0-.6,0-.52,0-.97,0-1.36,0-4.02.01-4.22-1.22-4.33-5.59-.09-3.53.01-7.1.11-10.56.05-1.65.09-3.3.12-4.94.02-1.31.03-2.62.04-3.93,0-1.06.02-2.11.03-3.17,0-.18,0-.29-.02-.36-.11-.03-.33-.06-.73-.07-2.68-.07-5.42,0-8.08.08-3.01.08-6.13.17-9.22.04-.3-.01-.53-.02-.71-.01-.01.15-.02.35-.02.64-.1,6.45-.15,9.88-.34,11.71v.64s0,3.43,0,3.43c0,3.06,0,6.12.02,9.17,0,.91-.25,1.63-.75,2.15-.51.51-1.22.77-2.12.78-.12,0-.2,0-.28,0-.74,0-1.39,0-1.96,0-4.21.04-4.86-.61-4.99-5.05l-.04-1.37c-.13-3.4,0-6.84.11-10.16.03-.92.07-1.84.09-2.76.09-3.06.09-6.19.08-9.21,0-3.04-.02-6.19.08-9.29.23-7.41.23-14.74,0-21.77-.03-.85.06-1.66.14-2.44.1-.93.19-1.8.08-2.63-.14-1.09.23-1.81.57-2.22.35-.42,1.01-.94,2.17-1l1.22-.07c.95-.06,1.89-.12,2.84-.14,1.07.01,1.7.39,2.06.75.77.76.85,1.8.84,2.51-.02,1.59-.04,3.19-.08,4.78-.06,2.21-.05,4.46-.04,6.64.02,2.88.03,5.87-.12,8.82-.04.76.02,1.54.07,2.37.08,1.09.15,2.21.03,3.39-.01.13,0,.2,0,.23,0-.03.13,0,.36,0,.01,0,.02,0,.03,0,1.77-.02,3.53,0,5.3,0l5.7.02c2.41,0,4.82,0,7.23.05.2,0,.32,0,.39-.02.03-.09.06-.26.08-.56.42-5.64.26-11.41.12-16.98l-.08-3.06c-.02-.94.06-1.84.15-2.71.1-1.08.2-2.1.09-3.09-.11-.94.24-1.58.55-1.94.5-.59,1.26-.93,2.19-.98l1.15-.07c.97-.06,1.95-.13,2.92-.14,1.08-.03,1.75.44,2.11.82.57.61.82,1.47.73,2.56-.08,1.06-.07,2.12-.05,3.25.01.88.03,1.77,0,2.65-.13,3.46-.13,7-.12,10.43,0,1.33,0,2.67,0,4-.02,3.82.03,7.99.15,12.77.21,8.39.16,17.15-.13,26.01l-.02.46c-.02.27-.03.55-.02.82.02.26.04.49.06.7.09.96.19,1.96-.54,2.75-.72.78-1.86.91-3.28.91Zm-32.13-2.98c.37.05,1.14.04,1.89.04.58,0,1.25-.01,2.04,0h.16c-.03-3.06-.02-6.11-.02-9.17v-2.66s-3.11-2.18-3.11-2.18l3.2-.04c.08-2.19.19-6.9.25-10.93.02-1.18.09-2.15.83-2.85.8-.76,1.9-.71,2.96-.67,2.99.12,6.05.04,9.02-.04,2.69-.08,5.48-.15,8.24-.08.91.03,3.66.1,3.61,3.42-.01,1.05-.02,2.1-.03,3.15,0,1.32-.02,2.64-.04,3.96-.03,1.66-.07,3.32-.12,4.98-.1,3.42-.2,6.95-.11,10.4.03,1.09.06,2.21.15,2.7.28.03.77.02,1.21.02.41,0,.89,0,1.44,0,.76.01,1.21,0,1.48-.03-.01-.13-.02-.27-.04-.39-.02-.24-.05-.5-.07-.78-.03-.39,0-.79.01-1.18l.02-.39c.29-8.81.33-17.51.13-25.84-.12-4.8-.17-9.01-.15-12.85,0-1.33,0-2.65,0-3.98,0-3.45-.01-7.02.12-10.54.03-.83.02-1.66,0-2.49-.02-1.14-.04-2.32.06-3.52,0-.08,0-.15,0-.21-.93.01-1.79.07-2.65.13l-1.14.07c.09,1.17-.01,2.29-.11,3.37-.08.82-.15,1.6-.13,2.36l.08,3.05c.15,5.65.31,11.49-.12,17.28-.06.83-.28,3.35-3.47,3.3-2.39-.05-4.78-.05-7.17-.05l-5.73-.02c-1.74-.01-3.49-.03-5.23,0-1.4.02-2.21-.53-2.64-1-.4-.44-.86-1.23-.73-2.49.1-.92.03-1.87-.04-2.87-.06-.88-.13-1.79-.08-2.72.14-2.87.13-5.81.11-8.66-.01-2.2-.02-4.48.04-6.74.04-1.58.06-3.16.08-4.74,0-.12,0-.21,0-.28-.92.02-1.76.07-2.6.13l-1.21.07c.12,1.19.01,2.23-.09,3.23-.08.71-.15,1.39-.13,2.03.23,7.09.22,14.47,0,21.95-.09,3.05-.09,6.17-.08,9.19,0,3.05.02,6.2-.08,9.31-.03.93-.06,1.85-.1,2.78-.12,3.27-.24,6.65-.11,9.94l.04,1.4c.02.87.05,1.76.13,2.16Zm.22-61.96h0Z"/>
      </g>
      <g>
        <path class="cls-1" d="m493.22,272.16c.14,6.08-.06,10.37-.57,14.6-.62,5.12-1.88,10.1-5.6,14.07-.75.8-1.68,1.15-2.47,1.78-4.97,3.93-10.64,5.08-16.67,3.6-3.49-.85-6.81-2.38-9.2-5.38-3.21-4.04-5.25-8.53-6.48-13.59-1.27-5.26-1.03-10.54-1.28-15.82-.17-3.5.41-6.92.9-10.34.67-4.64,2.62-8.74,5.57-12.43,1.97-2.45,4.16-4.41,6.98-5.81,3.08-1.52,6.38-1.8,9.64-1.88,3.87-.09,7.67.61,11.02,2.96,3.05,2.14,5.21,4.94,6.06,8.48,1.69,7.06,1.49,14.35,2.09,19.75h0Zm-34.2,3.33c0,1.51-.04,3.02,0,4.53.13,4.7,1.29,9.09,4.09,12.91,1.89,2.58,4.07,4.85,7.33,5.67,5.35,1.33,9.09-1.58,12.46-5.04,1.95-2,2.19-4.87,2.59-7.51.37-2.43.2-4.9.09-7.36-.2-4.43.56-8.85.1-13.29-.12-1.18-.18-2.37-.24-3.56-.2-4.16-1.57-7.92-4.11-11.18-1.26-1.63-3.02-2.49-5.17-2.44-4.16.11-8.07.74-11.41,3.64-2.25,1.95-3.82,4.14-4.41,7.08-1.11,5.47-2.04,10.94-1.33,16.55h0Z"/>
        <path class="cls-1" d="m472.92,308.31c-1.74,0-3.53-.22-5.36-.67-4.44-1.08-7.71-3.01-10-5.9-3.22-4.05-5.43-8.68-6.75-14.16-1-4.11-1.1-8.22-1.19-12.2-.03-1.3-.06-2.6-.13-3.9-.16-3.3.31-6.5.76-9.6l.15-1.02c.67-4.68,2.65-9.1,5.88-13.14,2.27-2.83,4.64-4.8,7.48-6.21,3.33-1.65,6.9-1.95,10.26-2.03,4.75-.11,8.64.94,11.9,3.23,3.52,2.47,5.76,5.62,6.65,9.35,1.17,4.91,1.45,9.87,1.7,14.26.12,2.04.23,3.97.42,5.67v.13c.15,5.9-.03,10.33-.56,14.81-.55,4.55-1.72,10.36-5.99,14.9-.59.63-1.23,1.02-1.8,1.37-.29.18-.57.35-.84.56-3.83,3.03-8.04,4.55-12.57,4.55Zm1.78-65.88c-.2,0-.4,0-.61,0-3.49.08-6.36.41-9.03,1.73-2.43,1.21-4.5,2.92-6.49,5.41-2.94,3.67-4.66,7.5-5.26,11.72l-.15,1.03c-.45,3.1-.88,6.02-.74,9.03.06,1.32.1,2.65.13,3.97.1,4,.19,7.78,1.11,11.58,1.23,5.05,3.25,9.31,6.2,13.02,1.89,2.39,4.56,3.93,8.4,4.87,5.68,1.39,10.86.27,15.41-3.33.36-.28.74-.52,1.12-.76.47-.29.87-.54,1.19-.88,3.66-3.9,4.69-8.88,5.21-13.24.52-4.32.69-8.61.56-14.33-.19-1.77-.31-3.71-.42-5.77-.24-4.26-.52-9.08-1.63-13.73-.72-3.01-2.56-5.57-5.48-7.62-2.58-1.81-5.71-2.7-9.53-2.7Zm-1.63,57.97c-.94,0-1.93-.12-2.97-.38-3.88-.97-6.3-3.69-8.16-6.22-2.79-3.8-4.22-8.29-4.38-13.74-.03-1.05-.02-2.11-.01-3.16v-1.35c-.71-5.85.29-11.56,1.37-16.91.61-3.03,2.17-5.54,4.89-7.9,3.85-3.33,8.4-3.89,12.34-3.99,2.58-.06,4.79.97,6.37,3.01,2.71,3.49,4.19,7.53,4.41,12.01.05,1.15.11,2.33.23,3.48.27,2.59.14,5.17.01,7.66-.1,1.97-.19,3.83-.11,5.72l.03.67c.11,2.28.22,4.63-.14,6.98l-.11.77c-.37,2.53-.78,5.4-2.88,7.55-3,3.08-6.39,5.82-10.9,5.82Zm-12.58-23.96v.47c-.01,1.02-.02,2.04.01,3.06.14,4.83,1.38,8.78,3.81,12.08,1.55,2.11,3.53,4.37,6.5,5.11,4.37,1.09,7.47-.97,11.06-4.64,1.43-1.46,1.74-3.62,2.07-5.91l.12-.79c.31-2.06.21-4.17.11-6.4l-.03-.67c-.09-2.02.01-4.04.11-6,.13-2.49.24-4.84,0-7.21-.13-1.23-.19-2.45-.24-3.64-.19-3.86-1.47-7.34-3.8-10.35-1-1.28-2.33-1.91-3.97-1.87-3.59.09-7.34.56-10.49,3.28-2.24,1.94-3.45,3.87-3.94,6.26-1.04,5.15-2,10.63-1.31,16.08l.14,1.08-.13.06Z"/>
      </g>
      <g>
        <path class="cls-1" d="m512.75,285.67c-.45-6.67.02-12.97-.17-19.25-.21-7.17-.12-14.32-.07-21.48.02-2.76.04-2.86,2.7-2.89,4.09-.05,8.19-.17,12.27.33,2.18.27,4.4.31,6.59.47,8.61.63,13.52,5.13,15.09,13.52,1.02,5.43.37,10.75-2.22,15.59-2.3,4.28-5.74,7.48-10.94,7.98-4.87.47-9.77.35-14.66.3-2.25-.02-2.39.11-2.37,2.4.07,6.85.26,13.69.07,20.54-.02.63,0,1.26-.06,1.89-.16,1.65-.52,1.81-3.63,1.76-2.32-.04-2.71-.28-2.77-1.94-.15-4.33-.19-8.66.04-12.98.12-2.2-.26-4.41.12-6.22h0Zm6.2-21.47c0,2.2.05,4.41-.02,6.6-.04,1.29.5,1.8,1.74,2.01,1.58.26,3.16.21,4.72.2,3.07-.01,6.14.21,9.2-.38,2.82-.55,4.86-1.93,6.2-4.56,1.75-3.41,1.3-7.04,1.45-10.62.01-.29-.22-.58-.31-.88-1.47-4.46-5.04-6.12-9.26-6.41-3.98-.28-7.99.38-12,.22-1.34-.06-1.88.57-1.83,2.04.13,3.92.04,7.85.04,11.77h.06Z"/>
        <path class="cls-1" d="m516.3,308.3c-.31,0-.64,0-.97-.01-2.32-.04-4.1-.31-4.21-3.36-.18-5.25-.16-9.3.05-13.12.05-.82.01-1.68-.02-2.51-.05-1.24-.09-2.53.12-3.72-.25-3.9-.2-7.68-.15-11.34.04-2.68.07-5.2,0-7.77-.18-6.21-.14-12.51-.09-18.6l.02-2.93c.02-3.38.54-4.31,4.15-4.35l1.19-.02c3.68-.05,7.49-.11,11.28.36,1.38.17,2.83.25,4.22.32.77.04,1.53.08,2.3.14,9.2.67,14.73,5.62,16.43,14.72,1.12,5.97.32,11.54-2.37,16.55-2.85,5.31-6.92,8.25-12.1,8.75-4.41.43-8.86.38-13.17.33l-1.64-.02c-.19,0-.58,0-.88,0-.02.3-.01.71,0,.9.02,1.67.04,3.33.06,4.99.07,5.11.15,10.39,0,15.6v.57c-.01.48-.02.95-.07,1.43-.27,2.79-1.87,3.1-4.15,3.1Zm-2.21-3.03c.2.04.58.07,1.29.08.47,0,1.6.03,2.09-.05.01-.08.03-.2.05-.38.04-.39.04-.77.04-1.16v-.62c.15-5.15.07-10.4,0-15.48-.02-1.67-.05-3.34-.06-5-.01-1.2-.02-2.33.76-3.12.78-.79,1.91-.77,3.09-.76l1.65.02c4.23.05,8.6.1,12.85-.31,4.2-.41,7.4-2.77,9.79-7.22,2.37-4.41,3.06-9.33,2.07-14.62-1.47-7.83-5.83-11.75-13.75-12.32-.75-.05-1.49-.09-2.24-.13-1.45-.08-2.94-.16-4.42-.34-3.59-.44-7.29-.39-10.88-.34l-1.2.02c-.33,0-.87.01-1.21.04-.03.34-.03.91-.04,1.39l-.02,2.94c-.04,6.06-.09,12.33.09,18.49.08,2.63.04,5.31,0,7.9-.05,3.66-.1,7.44.16,11.29v.2s-.03.2-.03.2c-.19.91-.15,2.03-.1,3.23.03.9.07,1.82.01,2.78-.21,3.73-.22,7.69-.04,12.85,0,.21.02.35.03.44Zm15.19-30.75c-.61,0-1.22,0-1.82-.02-.69,0-1.37-.02-2.06-.02h-.6c-1.41.01-2.87.03-4.37-.22-2.03-.34-3.03-1.52-2.97-3.51.05-1.53.04-3.07.03-4.6l-.07-1.96c0-1.12,0-2.24.01-3.35.02-2.75.03-5.59-.06-8.37-.04-1.22.25-2.12.88-2.74.59-.59,1.42-.86,2.48-.82,1.8.07,3.67-.03,5.48-.13,2.14-.12,4.35-.24,6.56-.09,5.5.39,9.06,2.88,10.55,7.42l.06.14c.14.28.34.71.32,1.27-.03.76-.04,1.53-.04,2.29-.02,2.93-.04,5.96-1.57,8.94-1.5,2.93-3.87,4.67-7.23,5.33-1.89.37-3.76.44-5.6.44Zm-3.6-2.97c.61,0,1.21,0,1.82.02,2.36.03,4.6.06,6.81-.37,2.48-.48,4.08-1.65,5.17-3.78,1.21-2.36,1.23-4.91,1.25-7.62,0-.74.01-1.47.04-2.2l-.02-.05c-.08-.17-.16-.33-.21-.5-1.12-3.38-3.65-5.1-7.97-5.41-2.03-.14-4.05-.03-6.19.09-1.88.1-3.81.21-5.76.13-.13,0-.21,0-.27,0-.02.09-.04.25-.03.52.09,2.84.07,5.71.06,8.49,0,.65,0,1.29-.01,1.94l.07,3.33c.01,1.57.02,3.14-.03,4.71,0,.25.02.37.03.4.01-.02.15.06.48.11,1.25.21,2.52.2,3.86.19h.61c.1,0,.19,0,.29,0Z"/>
      </g>
    </g>
    <path class="cls-1" d="m690.71,288.84c-12.82-.12-33.37-.23-53.93-.35-20.56-.11-41.13-.23-53.95-.35l.05-5.88c12.82.12,33.37.23,53.93.35,20.56.11,41.13.23,53.95.35l-.05,5.88Z"/>
    <path class="cls-1" d="m690.71,249.21c-12.82-.12-33.37-.23-53.93-.35-20.56-.11-41.13-.23-53.95-.35l.05-5.88c12.82.12,33.37.23,53.93.35,20.56.11,41.13.23,53.95.35l-.05,5.88Z"/>
  </g>
  <path class="cls-1" d="m584.57,248.94c3.56.02,6.2.56,9.63-.29,4.05-1.01,8.82-.34,12.95-.17,9.03.36,18.05,1,27.09,1.29,18.11.58,36.24.41,54.34-.45,5-.24,5.03-8.05,0-7.81-18.1.86-36.23,1.03-54.34.45-8.73-.28-17.44-.88-26.16-1.25-8-.35-15.68.47-23.51.42-5.03-.03-5.03,7.78,0,7.81h0Z"/>
  <path class="cls-1" d="m581.07,292.55c4.06.25,7.71,1.07,11.65,1.62,4.49.63,9.32.32,13.85.36,9.57.09,19.14-.14,28.69-.54,9.47-.39,18.92-1.04,28.38-1.54,4.36-.23,8.27-.1,12.55.73s8.18,1.52,12.52.39c4.98-1.3,2.87-9.01-2.13-7.71-4.34,1.13-8.54-.66-12.84-1.22-3.93-.52-7.84-.31-11.79-.08-9.55.57-19.11,1.15-28.67,1.52-9.23.36-18.47.55-27.71.45-8.35-.09-16.2-1.46-24.5-1.96-5.14-.31-5.12,7.69,0,8h0Z"/>
</svg>